<svg
    xmlns="http://www.w3.org/2000/svg"
    width="95"
    height="95"
    viewBox="0 0 95 95"
    fill="none">
    <path
        d="M68.6133 72.2981C54.9352 83.9207 39.0524 90.789 27.4297 77.1109C15.8071 63.4328 12.8458 34.3881 26.5238 22.7654C40.2019 11.1428 51.6119 15.2261 72.3349 26.487C93.0579 37.7479 82.2913 60.6754 68.6133 72.2981Z"
        fill="#FFE9E9">
    </path>
    <path
        d="M67.2236 42.4641C65.0697 37.4424 61.4095 33.7903 56.3459 31.6307C53.8151 30.5513 51.1636 30 48.3936 30C45.624 30 42.9921 30.5461 40.4641 31.6307C35.4424 33.7846 31.766 37.4344 29.6083 42.4641C28.527 44.984 28 47.624 28 50.3935C28 53.1636 28.527 55.8255 29.6083 58.3459C31.766 63.3757 35.4429 67.0473 40.4641 69.2017C42.9926 70.2863 45.624 70.8319 48.3936 70.8319C51.1632 70.8319 53.8151 70.2806 56.3455 69.2017C61.4091 67.0421 65.0693 63.3671 67.2237 58.3459C68.3082 55.8174 68.8543 53.1636 68.8543 50.3935C68.8543 47.624 68.3087 44.9925 67.2236 42.4641ZM63.9628 59.4181C62.3592 62.1681 60.1624 64.3498 57.3957 65.9628C54.6457 67.5663 51.6326 68.375 48.3941 68.375C45.9595 68.375 43.6364 67.9061 41.4248 66.9454C39.2132 65.9852 37.3038 64.7229 35.7065 63.126C34.1091 61.5287 32.8378 59.6006 31.8871 57.3852C30.9392 55.178 30.4799 52.8286 30.4799 50.3936C30.4799 47.1546 31.2757 44.1568 32.8702 41.4144C34.4704 38.662 36.6677 36.478 39.4149 34.8697C42.1616 33.2614 45.1552 32.457 48.3936 32.457C51.6326 32.457 54.6452 33.2661 57.3952 34.8697C60.162 36.4828 62.354 38.6667 63.9623 41.4143C65.5706 44.1615 66.3745 47.1546 66.3745 50.3935C66.3745 53.6326 65.5759 56.6508 63.9628 59.4181Z"
        fill="#11141B">
    </path>
    <path
        d="M49.6893 50.2148V38.6442C49.6893 37.9518 49.086 37.3933 48.3935 37.3933C47.7459 37.3933 47.165 37.9518 47.165 38.6442V50.3935C47.165 50.4159 47.2098 50.5055 47.2098 50.5722C47.165 50.9744 47.2771 51.3094 47.5449 51.5777L54.224 58.2563C54.6709 58.7033 55.4972 58.7033 55.9438 58.2563C56.4574 57.7426 56.4236 56.9973 55.9438 56.5141L49.6893 50.2148Z"
        fill="#11141B">
    </path>
</svg>