<svg
  xmlns="http://www.w3.org/2000/svg"
  width="76"
  height="81"
  viewBox="0 0 76 81"
  fill="none">
  <path
    d="M76 40.3938C76 61.5199 70.0945 81 49.1077 81C28.1209 81 0 61.5199 0 40.3938C0 19.2677 12.2769 12.1461 38 2.14164C63.7231 -7.86278 76 19.2677 76 40.3938Z"
    fill="#FFE9E9">
  </path>
  <path
    d="M51.3631 33.1049C48.4051 30.1469 43.5601 30.0449 40.5001 32.9519C37.4401 30.0959 32.6461 30.1469 29.6371 33.1049C26.6281 36.1139 26.5771 41.0099 29.5861 44.0699L29.6371 44.1209L38.4601 52.9439C39.0211 53.5049 39.7861 53.8109 40.5001 53.8109C41.2651 53.8109 41.9791 53.5049 42.5401 52.9439L51.3121 44.1719C51.3121 44.1719 51.3121 44.1719 51.3631 44.1209C54.3721 41.0609 54.3721 36.1649 51.3631 33.1049ZM49.9861 42.7439L49.9351 42.7949L41.1631 51.5159C40.8061 51.8729 40.1941 51.8729 39.8371 51.5159L31.1161 42.7949L31.0651 42.7439C28.8211 40.4999 28.8211 36.7769 31.0651 34.5329C33.3091 32.2889 36.9811 32.2889 39.2761 34.5329C39.2761 34.5329 39.2761 34.5329 39.3271 34.5839L39.8371 35.0939C40.0411 35.2979 40.2961 35.3999 40.5511 35.3999C40.8061 35.3999 41.0611 35.2979 41.2651 35.0939L41.7241 34.6349L41.7751 34.5839C44.0191 32.3399 47.6911 32.3399 49.9861 34.5839C52.2301 36.7769 52.2301 40.4489 49.9861 42.7439Z"
    fill="black">
  </path>
  <path
    d="M40.4998 22.65C41.0608 22.65 41.4688 22.191 41.4688 21.681V17.244C41.4688 16.683 41.0098 16.275 40.4998 16.275C39.9898 16.275 39.5308 16.734 39.5308 17.244V21.681C39.5308 22.242 39.9388 22.65 40.4998 22.65Z"
    fill="black">
  </path>
  <path
    d="M26.4749 27.903C26.6789 28.107 26.9339 28.209 27.1889 28.209C27.4439 28.209 27.6989 28.107 27.9029 27.903C28.3109 27.495 28.3109 26.883 27.9029 26.526L24.7919 23.415C24.3839 23.007 23.7719 23.007 23.4149 23.415C23.0069 23.823 23.0069 24.435 23.4149 24.792L26.4749 27.903Z"
    fill="black">
  </path>
  <path
    d="M21.6808 39.531H17.2438C16.6828 39.531 16.2748 39.99 16.2748 40.5C16.2748 41.01 16.7338 41.469 17.2438 41.469H21.6808C22.2418 41.469 22.6498 41.01 22.6498 40.5C22.6498 39.99 22.2418 39.531 21.6808 39.531Z"
    fill="black">
  </path>
  <path
    d="M26.4747 53.097L23.3637 56.208C22.9557 56.616 22.9557 57.228 23.3637 57.585C23.5677 57.789 23.8227 57.891 24.0777 57.891C24.3327 57.891 24.5877 57.789 24.7917 57.585L27.9027 54.474C28.3107 54.066 28.3107 53.454 27.9027 53.097C27.4947 52.74 26.8827 52.74 26.4747 53.097Z"
    fill="black">
  </path>
  <path
    d="M40.4998 58.3501C39.9388 58.3501 39.5308 58.8091 39.5308 59.3191V63.7561C39.5308 64.3171 39.9898 64.7251 40.4998 64.7251C41.0098 64.7251 41.4688 64.2661 41.4688 63.7561V59.3191C41.4688 58.7581 41.0608 58.3501 40.4998 58.3501Z"
    fill="black">
  </path>
  <path
    d="M54.5251 53.097C54.1171 52.689 53.5051 52.689 53.1481 53.097C52.7401 53.505 52.7401 54.117 53.1481 54.474L56.2591 57.585C56.4631 57.789 56.7181 57.891 56.9731 57.891C57.2281 57.891 57.4831 57.789 57.6871 57.585C58.0951 57.177 58.0951 56.565 57.6871 56.208L54.5251 53.097Z"
    fill="black">
  </path>
  <path
    d="M63.7558 39.531H59.3188C58.7578 39.531 58.3498 39.99 58.3498 40.5C58.3498 41.01 58.8088 41.469 59.3188 41.469H63.7558C64.3168 41.469 64.7248 41.01 64.7248 40.5C64.7248 39.99 64.2658 39.531 63.7558 39.531Z"
    fill="black">
  </path>
  <path
    d="M56.2079 23.3641L53.0969 26.4751C52.6889 26.8831 52.6889 27.4951 53.0969 27.8521C53.3009 28.0561 53.5559 28.1581 53.8109 28.1581C54.0659 28.1581 54.3209 28.0561 54.5249 27.8521L57.6359 24.7411C58.0439 24.3331 58.0439 23.7211 57.6359 23.3641C57.2279 23.0071 56.6159 23.0071 56.2079 23.3641Z"
    fill="black">
  </path>
</svg>