<svg
  xmlns="http://www.w3.org/2000/svg"
  width="54"
  height="58"
  viewBox="0 0 54 58"
  fill="none">
  <path
    d="M54 28.924C54 44.0513 49.804 58 34.8923 58C19.9806 58 0 44.0513 0 28.924C0 13.7967 8.72308 8.69718 27 1.53352C45.2769 -5.63014 54 13.7967 54 28.924Z"
    fill="#FFE9E9">
  </path>
  <path
    d="M35.29 25.88C35.3016 25.9442 35.3083 26.0093 35.31 26.0745C35.3104 26.2065 35.2845 26.3373 35.2339 26.4592C35.1832 26.5811 35.1088 26.6917 35.015 26.7845C34.9699 26.8317 34.9196 26.8736 34.865 26.9095C34.8095 26.9449 34.7509 26.9752 34.69 27C34.6309 27.0259 34.5687 27.0442 34.505 27.0545C34.441 27.0688 34.3756 27.0755 34.31 27.0745C34.1783 27.0728 34.0479 27.0475 33.925 27C33.8657 26.9751 33.8088 26.9448 33.755 26.9095C33.6997 26.8726 33.6478 26.8308 33.6 26.7845C33.4138 26.5951 33.3096 26.3401 33.31 26.0745C33.3092 26.0091 33.316 25.9439 33.33 25.88C33.3407 25.8163 33.3592 25.7542 33.385 25.695C33.4097 25.6341 33.4398 25.5755 33.475 25.52C33.5125 25.4667 33.5543 25.4165 33.6 25.37C33.6479 25.3239 33.6998 25.2821 33.755 25.245C33.8088 25.2098 33.8657 25.1797 33.925 25.155C33.9865 25.1299 34.0498 25.1097 34.1145 25.0945C34.2756 25.0634 34.4419 25.0722 34.5988 25.1203C34.7557 25.1683 34.8984 25.254 35.0145 25.37C35.0615 25.4153 35.1034 25.4656 35.1395 25.52C35.1761 25.5755 35.2079 25.6341 35.2345 25.695C35.2582 25.755 35.2768 25.8169 35.29 25.88ZM33.47 32C33.47 33.0819 33.1492 34.1394 32.5481 35.039C31.9471 35.9385 31.0928 36.6396 30.0933 37.0536C29.0938 37.4676 27.9939 37.576 26.9329 37.3649C25.8718 37.1538 24.8971 36.6329 24.1321 35.8679C23.3671 35.1029 22.8462 34.1282 22.6351 33.0671C22.424 32.0061 22.5324 30.9062 22.9464 29.9067C23.3604 28.9072 24.0615 28.0529 24.961 27.4519C25.8606 26.8508 26.9181 26.53 28 26.53C29.4501 26.532 30.8403 27.1089 31.8657 28.1343C32.8911 29.1597 33.468 30.5499 33.47 32ZM28.75 28.28C28.7478 28.0818 28.6681 27.8923 28.5279 27.7521C28.3877 27.6119 28.1982 27.5322 28 27.53C27.1676 27.5286 26.3514 27.7608 25.6444 28.2C24.9373 28.6393 24.3676 29.2681 24 30.015C23.9261 30.1638 23.9037 30.3329 23.9363 30.4957C23.9688 30.6586 24.0546 30.8061 24.18 30.915C24.2276 30.9556 24.2796 30.9909 24.335 31.02C24.4385 31.0734 24.5535 31.1009 24.67 31.1C24.8094 31.1006 24.9461 31.062 25.0646 30.9887C25.183 30.9153 25.2785 30.81 25.34 30.685C25.5836 30.1874 25.9621 29.7684 26.4325 29.4758C26.9028 29.1831 27.446 29.0286 28 29.03C28.1989 29.03 28.3897 28.951 28.5303 28.8103C28.671 28.6697 28.75 28.4789 28.75 28.28ZM39.75 28.5V35.5C39.7475 37.6873 38.8775 39.7842 37.3309 41.3309C35.7842 42.8775 33.6873 43.7475 31.5 43.75H24.5C22.3127 43.7475 20.2158 42.8775 18.6691 41.3309C17.1225 39.7842 16.2525 37.6873 16.25 35.5V28.5C16.2525 26.3127 17.1225 24.2158 18.6691 22.6691C20.2158 21.1225 22.3127 20.2525 24.5 20.25H31.5C33.6873 20.2525 35.7842 21.1225 37.3309 22.6691C38.8775 24.2158 39.7475 26.3127 39.75 28.5ZM38.25 28.5C38.248 26.7104 37.5362 24.9947 36.2708 23.7292C35.0053 22.4638 33.2896 21.752 31.5 21.75H24.5C22.7104 21.752 20.9947 22.4638 19.7292 23.7292C18.4638 24.9947 17.752 26.7104 17.75 28.5V35.5C17.752 37.2896 18.4638 39.0053 19.7292 40.2708C20.9947 41.5362 22.7104 42.248 24.5 42.25H31.5C33.2896 42.248 35.0053 41.5362 36.2708 40.2708C37.5362 39.0053 38.248 37.2896 38.25 35.5V28.5Z"
    fill="black">
  </path>
</svg>