<svg
    width="330"
    height="286"
    viewBox="0 0 330 286"
    fill="none"
    xmlns="http://www.w3.org/2000/svg"
>
    <path
        d="M4.37192 91.374C6.23081 95.6423 8.2901 100.017 10.5498 104.497C12.7943 108.938 15.0025 113.164 17.1744 117.176C17.9639 118.884 17.8282 119.964 16.7672 120.415C16.5281 120.506 16.2585 120.518 15.9584 120.45C15.6432 120.342 15.3326 120.186 15.0267 119.983C14.7209 119.781 14.4074 119.558 14.0863 119.315C13.8051 119.057 13.5988 118.816 13.4676 118.592C12.3723 116.681 11.2511 114.643 10.1043 112.478C8.95741 110.313 7.83047 108.14 6.72346 105.959C5.64109 103.723 4.60148 101.54 3.60464 99.4088C2.6078 97.2775 1.73926 95.3028 0.999019 93.4846C0.713318 92.4975 0.548306 91.6471 0.503983 90.9332C0.444435 90.1795 0.741134 89.7008 1.39408 89.4971C2.08688 89.2781 2.67175 89.3744 3.14869 89.7859C3.65026 90.1424 4.058 90.6718 4.37192 91.374ZM28.3129 90.3812C29.6761 90.3629 30.9238 90.6399 32.0559 91.2123C33.2279 91.7694 34.2462 92.5222 35.111 93.4708C35.9605 94.3794 36.626 95.4041 37.1074 96.5447C37.6286 97.6701 37.9202 98.792 37.9819 99.9102C37.9698 101.194 37.8305 102.503 37.564 103.838C37.2975 105.173 36.8857 106.426 36.3286 107.598C35.7715 108.77 35.0339 109.829 34.1158 110.773C33.1977 111.718 32.0611 112.449 30.706 112.966C29.0718 113.591 27.5521 113.737 26.1468 113.406C24.7415 113.075 23.4916 112.434 22.3971 111.482C21.3026 110.529 20.3664 109.334 19.5886 107.896C18.8506 106.442 18.3118 104.912 17.9724 103.306C17.7055 102.129 17.5535 100.954 17.5163 99.7809C17.5038 98.5525 17.6442 97.4255 17.9376 96.4C18.2157 95.3346 18.6345 94.3982 19.1938 93.5907C19.793 92.7681 20.5909 92.1664 21.5873 91.7858C22.1453 91.5726 22.8885 91.4257 23.8169 91.3451C24.73 91.2247 25.6214 91.2267 26.4911 91.3512C26.8265 90.675 27.4338 90.3517 28.3129 90.3812ZM27.7082 95.6135C27.1632 95.502 26.508 95.3412 25.7427 95.1312C25.002 94.866 24.4124 94.8172 23.974 94.9847C23.4957 95.1674 23.1011 95.5693 22.7903 96.1905C22.5194 96.7964 22.3187 97.4668 22.1884 98.2017C22.0827 98.8815 22.0245 99.566 22.0137 100.255C22.003 100.944 22.0262 101.484 22.0836 101.873C22.1924 102.516 22.3867 103.264 22.6666 104.116C22.9465 104.969 23.326 105.783 23.8052 106.559C24.2691 107.295 24.8497 107.918 25.547 108.428C26.2689 108.883 27.1415 109.075 28.1648 109.004C28.7837 108.95 29.4413 108.699 30.1377 108.251C30.8189 107.762 31.4269 107.142 31.9616 106.389C32.5362 105.622 32.9901 104.717 33.3233 103.677C33.6963 102.621 33.8643 101.506 33.8271 100.333C33.7842 99.0246 33.3274 97.8288 32.4568 96.7455C31.6109 95.6071 30.5034 94.9797 29.1344 94.8632C28.9315 95.1691 28.6906 95.3753 28.4116 95.4819C28.1326 95.5884 27.8981 95.6323 27.7082 95.6135ZM42.9937 86.0748C43.3417 86.627 43.7201 87.2589 44.129 87.9706C44.5625 88.6271 45.0112 89.3235 45.4751 90.0597C45.9238 90.7561 46.3602 91.48 46.7843 92.2315C47.2084 92.983 47.5973 93.7022 47.9511 94.3892C48.0335 93.1702 48.133 91.8762 48.2494 90.5072C48.3659 89.1381 48.5603 87.8535 48.8326 86.6533C49.1295 85.3981 49.5149 84.3145 49.9887 83.4027C50.5024 82.4757 51.1977 81.8447 52.0746 81.5098C53.3899 81.0073 54.6686 81.0669 55.9109 81.6885C57.1931 82.2949 58.4071 83.2014 59.5531 84.4079C60.7237 85.5593 61.7853 86.8437 62.7378 88.2611C63.6903 89.6785 64.5146 90.9394 65.2105 92.0438C65.8607 93.0286 65.6869 94.0084 64.6891 94.9833C64.2377 95.4755 63.8344 95.6752 63.4793 95.5825C63.1242 95.4898 62.8886 95.3514 62.7726 95.1674C62.3906 94.7652 61.8118 94.0272 61.0362 92.9532C60.3004 91.8641 59.4972 90.7779 58.6267 89.6945C57.796 88.596 56.9664 87.6797 56.1379 86.9457C55.3094 86.2117 54.6115 85.9987 54.044 86.3068C53.3418 86.6207 52.9097 87.4024 52.7475 88.6519C52.589 89.6716 52.4486 90.7986 52.3263 92.0328C52.2286 93.2119 52.1462 94.4309 52.079 95.6898C51.9966 96.9088 51.9218 98.1477 51.8546 99.4066C51.812 100.61 51.7589 101.727 51.6953 102.756C51.5229 103.142 51.2403 103.478 50.8475 103.765C50.4794 103.997 50.0457 104.117 49.5463 104.125C49.1021 104.158 48.7071 104.08 48.3614 103.892C48.0157 103.705 47.7895 103.472 47.6829 103.193C46.1366 100.221 44.6769 97.5354 43.3039 95.1368C41.9708 92.7229 40.4952 90.295 38.8772 87.8529C38.248 87.0428 37.9142 86.3482 37.8757 85.7691C37.8618 85.135 38.3759 84.6874 39.418 84.4263C40.9044 84.1326 42.0963 84.6821 42.9937 86.0748ZM70.568 63.415C70.1744 62.7433 69.963 62.0704 69.9339 61.3964C69.9447 60.7072 70.2736 60.1933 70.9207 59.8548C71.4881 59.5467 72.0672 59.5082 72.6579 59.7392C73.2884 59.9551 73.7853 60.3591 74.1485 60.9511C76.6966 65.2302 79.1773 69.5122 81.5906 73.7972C84.0285 78.027 86.3563 82.2076 88.5739 86.3389C89.1749 87.4338 89.3997 88.2615 89.2483 88.8217C89.0817 89.3421 88.8172 89.7856 88.4549 90.1524C88.0528 90.5344 87.5944 90.7095 87.0798 90.6777C86.6051 90.6307 86.209 90.3709 85.8915 89.8984L85.6947 89.5626L85.4784 89.7137C84.3458 90.6944 83.0773 91.4987 81.6729 92.1266C80.2532 92.7146 78.8096 93.0605 77.3421 93.1644C75.8745 93.2682 74.4551 93.0797 73.0839 92.5987C71.7372 92.0626 70.5783 91.1808 69.6069 89.9532C67.478 87.2496 67.01 84.2312 68.2031 80.898C68.724 79.5115 69.5021 78.1409 70.5375 76.7863C71.573 75.4316 72.9559 74.1497 74.6863 72.9405L75.6711 72.2903L70.568 63.415ZM72.6829 87.0654C73.2875 87.9307 74.0076 88.5005 74.8433 88.7751C75.6789 89.0496 76.5732 89.119 77.5262 88.9834C78.464 88.8078 79.4083 88.47 80.359 87.9697C81.3098 87.4695 82.2025 86.8773 83.0373 86.193L83.5069 85.8081L77.8133 75.9252L76.7318 76.6809C75.9861 77.2398 75.234 77.961 74.4753 78.8446C73.7413 79.673 73.145 80.5631 72.6864 81.5148C72.2278 82.4664 71.9591 83.4368 71.8802 84.4261C71.8413 85.4001 72.1088 86.2799 72.6829 87.0654ZM99.1924 63.3051C100.556 63.2868 101.803 63.5638 102.935 64.1362C104.107 64.6933 105.126 65.4461 105.99 66.3947C106.84 67.3033 107.505 68.328 107.987 69.4686C108.508 70.594 108.8 71.7159 108.861 72.8341C108.849 74.1176 108.71 75.4269 108.444 76.7618C108.177 78.0968 107.765 79.3503 107.208 80.5223C106.651 81.6943 105.913 82.7525 104.995 83.6969C104.077 84.6414 102.941 85.3725 101.585 85.8902C99.9513 86.5144 98.4315 86.661 97.0262 86.3301C95.6209 85.9991 94.3711 85.3576 93.2766 84.4054C92.1821 83.4533 91.2459 82.258 90.468 80.8196C89.73 79.3659 89.1913 77.8361 88.8519 76.2301C88.585 75.0532 88.433 73.8781 88.3958 72.7048C88.3833 71.4764 88.5237 70.3494 88.8171 69.3239C89.0952 68.2585 89.5139 67.322 90.0733 66.5146C90.6725 65.692 91.4703 65.0903 92.4668 64.7097C93.0248 64.4965 93.768 64.3496 94.6963 64.269C95.6095 64.1486 96.5009 64.1506 97.3706 64.2751C97.706 63.5989 98.3133 63.2756 99.1924 63.3051ZM98.5877 68.5374C98.0427 68.4259 97.3875 68.2651 96.6222 68.0551C95.8815 67.7899 95.2919 67.7411 94.8535 67.9086C94.3752 68.0913 93.9806 68.4932 93.6698 69.1144C93.3989 69.7203 93.1982 70.3907 93.0679 71.1256C92.9622 71.8054 92.904 72.4899 92.8932 73.1791C92.8824 73.8683 92.9057 74.4075 92.963 74.7967C93.0718 75.4402 93.2662 76.1881 93.5461 77.0404C93.8259 77.8926 94.2055 78.7068 94.6846 79.4829C95.1486 80.2191 95.7292 80.8423 96.4265 81.3524C97.1484 81.8074 98.021 81.9993 99.0443 81.9281C99.6632 81.8744 100.321 81.6232 101.017 81.1744C101.698 80.6859 102.306 80.0654 102.841 79.3131C103.416 78.5455 103.87 77.6413 104.203 76.6005C104.576 75.5446 104.744 74.4299 104.707 73.2566C104.664 71.9484 104.207 70.7527 103.336 69.6694C102.49 68.531 101.383 67.9036 100.014 67.7871C99.811 68.093 99.57 68.2992 99.291 68.4058C99.012 68.5123 98.7776 68.5562 98.5877 68.5374ZM113.873 58.9987C114.221 59.5509 114.6 60.1828 115.008 60.8944C115.442 61.551 115.891 62.2474 116.355 62.9836C116.803 63.68 117.24 64.4039 117.664 65.1554C118.088 65.9069 118.477 66.6261 118.831 67.3131C118.913 66.0941 119.012 64.8001 119.129 63.4311C119.245 62.062 119.44 60.7774 119.712 59.5772C120.009 58.322 120.394 57.2384 120.868 56.3266C121.382 55.3996 122.077 54.7686 122.954 54.4337C124.269 53.9312 125.548 53.9908 126.79 54.6124C128.073 55.2188 129.287 56.1253 130.433 57.3318C131.603 58.4832 132.665 59.7676 133.617 61.185C134.57 62.6024 135.394 63.8633 136.09 64.9677C136.74 65.9525 136.566 66.9323 135.569 67.9072C135.117 68.3994 134.714 68.5991 134.359 68.5064C134.004 68.4137 133.768 68.2753 133.652 68.0913C133.27 67.6891 132.691 66.9511 131.916 65.8771C131.18 64.788 130.377 63.7017 129.506 62.6184C128.675 61.5199 127.846 60.6036 127.017 59.8696C126.189 59.1356 125.491 58.9226 124.924 59.2307C124.221 59.5446 123.789 60.3263 123.627 61.5758C123.468 62.5955 123.328 63.7224 123.206 64.9567C123.108 66.1358 123.026 67.3548 122.958 68.6137C122.876 69.8327 122.801 71.0716 122.734 72.3305C122.691 73.5343 122.638 74.6507 122.575 75.6798C122.402 76.0654 122.12 76.4017 121.727 76.6888C121.359 76.9208 120.925 77.0408 120.426 77.0488C119.982 77.0815 119.587 77.004 119.241 76.8164C118.895 76.6287 118.669 76.3954 118.562 76.1164C117.016 73.1446 115.556 70.4593 114.183 68.0607C112.85 65.6468 111.375 63.2189 109.757 60.7768C109.127 59.9667 108.794 59.2721 108.755 58.693C108.741 58.0589 109.255 57.6113 110.298 57.3502C111.784 57.0564 112.976 57.606 113.873 58.9987ZM160.405 35.8796C160.478 36.3086 160.282 36.6344 159.819 36.857C159.356 37.0795 158.965 37.2517 158.647 37.3735C157.665 37.794 156.667 38.2895 155.652 38.8601C154.676 39.4154 153.672 40.0732 152.638 40.8336C152.22 41.1758 151.679 41.3139 151.015 41.2481C150.35 41.1822 149.798 40.7536 149.359 39.9623C149.237 39.6434 149.258 39.3387 149.421 39.048C149.584 38.7574 149.794 38.4715 150.052 38.1902C150.479 37.7532 151.021 37.3179 151.677 36.8844C152.318 36.411 152.983 35.9975 153.67 35.6437C154.396 35.2747 155.106 34.9807 155.799 34.7617C156.477 34.5029 157.057 34.3495 157.542 34.3016C158.255 34.2573 158.868 34.3659 159.379 34.6274C159.93 34.8737 160.272 35.2911 160.405 35.8796ZM166.635 56.3137C167.158 56.8449 167.564 57.4891 167.853 58.2464C168.167 58.9486 168.158 59.5229 167.826 59.9694C167.405 60.5413 166.8 60.7497 166.01 60.5948C165.22 60.4398 164.536 60.0844 163.958 59.5287C163.2 58.8591 162.473 57.9722 161.777 56.8678C161.066 55.7236 160.422 54.5765 159.846 53.4264C159.27 52.2764 158.764 51.1908 158.328 50.1697C157.932 49.1334 157.635 48.3562 157.437 47.8381C157.264 47.2648 157.225 46.6858 157.322 46.1009C157.418 45.516 157.67 45.1 158.078 44.8528C158.811 44.6186 159.518 44.7366 160.2 45.2069C160.867 45.6372 161.356 46.3184 161.666 47.2504C161.94 47.9678 162.264 48.7573 162.639 49.619C163.014 50.4806 163.429 51.327 163.883 52.1582C164.338 52.9894 164.805 53.7931 165.284 54.5692C165.748 55.3054 166.198 55.8869 166.635 56.3137ZM178.51 36.4312C178.263 36.0232 178.023 35.6351 177.791 35.267C177.559 34.8989 177.261 34.7159 176.897 34.7182C176.143 34.7777 175.418 35.0319 174.721 35.4806C174.025 35.9293 173.426 36.4548 172.926 37.0571C172.41 37.6196 172.016 38.2038 171.745 38.8097C171.459 39.3758 171.357 39.8259 171.439 40.1599C171.548 40.8035 171.928 41.3205 172.58 41.711C173.231 42.1016 174.082 42.416 175.132 42.6542C176.847 42.9583 178.629 43.2595 180.479 43.5578C182.328 43.8561 183.946 44.2657 185.333 44.7865C186.719 45.3074 187.805 46.0573 188.59 47.0363C189.4 47.9602 189.792 49.2262 189.767 50.8344C189.74 52.078 189.258 53.267 188.321 54.4014C187.384 55.5357 186.274 56.5763 184.991 57.5229C183.694 58.4298 182.358 59.237 180.984 59.9445C179.594 60.6122 178.402 61.1364 177.405 61.517C177.166 61.6084 176.837 61.6429 176.417 61.6205C176.022 61.543 175.62 61.4456 175.209 61.3282C174.839 61.1957 174.489 61.0555 174.158 60.9077C173.852 60.7048 173.661 60.5038 173.585 60.3045C173.311 59.587 173.439 58.967 173.971 58.4444C174.502 57.9218 175.106 57.5311 175.784 57.2722C176.74 56.9068 177.741 56.4787 178.787 55.9879C179.857 55.442 180.853 54.8791 181.773 54.2992C182.678 53.6794 183.461 53.0379 184.121 52.3746C184.781 51.7114 185.164 51.0399 185.27 50.3601C185.366 49.7752 184.973 49.2857 184.092 48.8916C183.235 48.4424 182.152 48.057 180.842 47.7355C179.571 47.3987 178.208 47.1199 176.754 46.899C175.339 46.663 174.107 46.4259 173.057 46.1876C172.006 45.9493 171.038 45.5657 170.151 45.0368C169.248 44.4681 168.497 43.6362 167.896 42.5412C167.46 41.5202 167.298 40.44 167.411 39.3007C167.524 38.1614 167.822 37.0884 168.305 36.0817C168.813 35.0199 169.482 34.0794 170.311 33.2604C171.14 32.4413 172.052 31.8414 173.049 31.4608C174.793 30.8858 176.391 30.8236 177.842 31.2741C179.277 31.6848 180.415 32.6891 181.254 34.287C181.467 34.845 181.542 35.3414 181.48 35.7763C181.457 36.1959 181.242 36.5293 180.834 36.7765C180.307 37.0694 179.826 37.1847 179.391 37.1224C178.98 37.0051 178.687 36.7747 178.51 36.4312ZM218.626 23.2308C219.368 22.9016 220.194 22.7917 221.103 22.901C222.013 23.0103 222.627 23.4834 222.947 24.3204C223.126 25.0285 222.915 25.6115 222.313 26.0697C221.737 26.4727 221.249 26.7503 220.85 26.9026C220.053 27.2071 219.204 27.5544 218.302 27.9444C217.401 28.3345 216.487 28.7521 215.561 29.1972C215.984 30.543 216.376 31.809 216.738 32.9953C217.14 34.1664 217.496 35.2179 217.806 36.1499C218.101 37.042 218.355 37.767 218.568 38.325C218.781 38.883 218.916 39.1744 218.971 39.199C219.787 38.7046 220.624 38.0877 221.484 37.3484C222.368 36.5539 223.224 35.7472 224.053 34.9281C224.907 34.0539 225.72 33.195 226.494 32.3513C227.293 31.4525 228.047 30.6164 228.756 29.843C229.079 29.4915 229.415 29.2946 229.764 29.2526C230.153 29.1952 230.441 29.2909 230.627 29.5394C230.874 29.9474 231.02 30.5083 231.064 31.2222C231.109 31.936 230.971 32.651 230.65 33.367C230.235 34.0737 229.651 34.9362 228.899 35.9546C228.17 36.9179 227.355 37.8917 226.452 38.876C225.549 39.8603 224.603 40.7925 223.615 41.6725C222.651 42.4974 221.746 43.1171 220.9 43.5318C219.63 44.1538 218.497 44.1758 217.499 43.5976C216.502 43.0194 215.72 42.1078 215.153 40.8628C214.586 39.6179 214.003 38.1507 213.403 36.4615C212.843 34.757 212.246 32.9529 211.61 31.0492C210.883 31.4182 210.176 31.7796 209.489 32.1333C208.827 32.432 208.192 32.743 207.585 33.0664C207.066 33.2643 206.443 33.3655 205.714 33.37C205.024 33.3592 204.55 33.015 204.292 32.3375C204.2 32.0983 204.178 31.7414 204.225 31.2667C204.272 30.792 204.596 30.3256 205.198 29.8674C206.725 28.9642 208.448 28.0323 210.364 27.0717C209.768 25.1527 209.215 23.2859 208.705 21.4713C208.194 19.6566 207.725 18.009 207.296 16.5285C207.153 16.035 207.133 15.5632 207.235 15.1131C207.337 14.663 207.528 14.3847 207.807 14.2781C208.469 13.9794 209.175 13.9152 209.925 14.0854C210.7 14.2005 211.179 14.4972 211.361 14.9755C211.72 16.3915 212.146 17.987 212.642 19.7617C213.177 21.5213 213.727 23.3207 214.293 25.16C215.059 24.7757 215.802 24.4466 216.519 24.1725C217.261 23.8434 217.963 23.5295 218.626 23.2308ZM229.647 7.03106C230.013 7.98765 230.404 9.07141 230.821 10.2824C231.278 11.4781 231.75 12.7137 232.237 13.9891C232.764 15.2493 233.286 16.557 233.804 17.9122C234.362 19.2521 234.896 20.5322 235.408 21.7526C235.502 20.8032 235.684 19.8433 235.952 18.8728C236.206 17.8625 236.557 16.929 237.006 16.0723C237.495 15.2004 238.05 14.4404 238.67 13.7924C239.33 13.1292 240.119 12.6225 241.036 12.2723C242.032 11.8916 243.031 11.8755 244.032 12.224C245.072 12.5572 246.077 13.1553 247.046 14.0183C248.04 14.8262 248.987 15.8117 249.888 16.9747C250.774 18.0979 251.596 19.2914 252.352 20.5552C253.134 21.7639 253.82 22.9632 254.412 24.1531C254.988 25.3032 255.484 26.3014 255.898 27.1478C256.142 27.7855 256.181 28.3646 256.014 28.885C255.847 29.4053 255.545 29.7493 255.106 29.9168C254.788 30.0386 254.313 29.9915 253.682 29.7757C253.076 29.5047 252.56 29.1084 252.132 28.5866C251.83 28.154 251.444 27.5022 250.974 26.6311C250.504 25.7601 249.992 24.8369 249.436 23.8615C248.866 22.8462 248.255 21.8462 247.605 20.8614C246.955 19.8766 246.291 19.0342 245.612 18.3342C244.958 17.5792 244.301 17.0539 243.64 16.7583C242.979 16.4627 242.352 16.4965 241.76 16.8597C240.84 17.4396 240.23 18.4721 239.929 19.9571C239.668 21.4269 239.548 23.0257 239.569 24.7534C239.629 26.4659 239.777 28.1679 240.012 29.8594C240.287 31.5356 240.528 32.8825 240.734 33.9C240.848 34.6783 240.819 35.2603 240.647 35.6459C240.499 35.9764 240.266 36.2025 239.947 36.3243C239.628 36.4461 239.268 36.4009 238.867 36.1886C238.506 35.9611 238.123 35.6738 237.716 35.3267C237.334 34.9246 236.972 34.5148 236.63 34.0974C236.272 33.6402 236.005 33.2398 235.828 32.8963C234.807 30.8201 233.863 28.8284 232.998 26.921C232.117 24.9738 231.256 23.019 230.415 21.0566C229.614 19.0789 228.817 17.0538 228.026 14.9812C227.219 12.8688 226.398 10.6016 225.564 8.17969C224.803 6.18681 225.178 5.01595 226.689 4.66712C227.198 4.56412 227.753 4.76297 228.356 5.26366C228.943 5.7245 229.373 6.31363 229.647 7.03106ZM269.378 6.10413C268.174 7.61466 266.774 8.97157 265.178 10.1749C263.567 11.3383 261.725 12.3159 259.653 13.1076C260.265 14.4722 261.09 15.436 262.128 15.9989C263.15 16.522 264.229 16.6577 265.366 16.406C266.034 16.2422 266.664 15.9786 267.256 15.6154C267.888 15.237 268.438 14.8217 268.904 14.3694C269.396 13.862 269.819 13.3575 270.176 12.8559C270.532 12.3544 270.829 11.8756 271.066 11.4197C271.303 10.9638 271.605 10.6199 271.974 10.3879C272.326 10.1161 272.618 9.98199 272.847 9.98558C273.482 9.9717 273.909 10.4934 274.131 11.5508C273.98 13.0698 273.482 14.5161 272.636 15.8896C271.776 17.2232 270.654 18.2913 269.27 19.0938C268.086 19.8202 266.748 20.2628 265.256 20.4218C263.764 20.5807 262.282 20.3476 260.81 19.7224C259.543 19.1559 258.434 18.3462 257.484 17.2933C256.533 16.2404 255.747 15.0792 255.125 13.8095C254.534 12.6196 254.184 11.4058 254.077 10.168C254.009 8.91491 254.174 7.73286 254.572 6.62179C254.954 5.47086 255.577 4.41085 256.44 3.44175C257.303 2.47265 258.437 1.67418 259.841 1.04634C261.509 0.272068 263.186 -0.00287282 264.87 0.221522C266.554 0.445917 267.934 1.12911 269.01 2.27111C269.618 2.9066 269.949 3.5338 270.003 4.1527C270.096 4.75639 269.888 5.40686 269.378 6.10413ZM260.95 4.66509C260.581 4.89706 260.196 5.20404 259.794 5.58604C259.432 5.95281 259.112 6.37175 258.835 6.84287C258.583 7.2589 258.374 7.72711 258.207 8.24749C258.065 8.71279 258.066 9.1922 258.209 9.68571C258.886 9.42688 259.601 9.08542 260.352 8.66133C261.144 8.22202 261.887 7.778 262.584 7.32929C263.305 6.82548 263.939 6.33221 264.485 5.84945C265.071 5.35147 265.53 4.87924 265.862 4.43275C265.254 3.79726 264.481 3.56729 263.543 3.74282C262.63 3.86327 261.765 4.17069 260.95 4.66509ZM81.0901 162.162C80.872 162.428 80.5561 162.617 80.1423 162.729C79.7132 162.802 79.2755 162.672 78.829 162.34C77.8715 161.747 76.9344 161.625 76.0177 161.975C75.1807 162.295 74.4995 162.784 73.9742 163.441C73.4735 164.043 73.0859 164.762 72.8114 165.598C72.5615 166.379 72.4217 167.209 72.3922 168.088C72.3626 168.967 72.4327 169.808 72.6024 170.611C72.936 172.082 73.6243 173.166 74.6673 173.864C75.7103 174.562 76.9492 174.637 78.3841 174.088C79.5552 173.687 80.7668 172.973 82.019 171.946C83.2958 170.865 84.4196 169.682 85.3906 168.398C85.8572 167.945 86.3221 167.608 86.7851 167.385C87.2482 167.163 87.7381 167.25 88.2549 167.646C88.8971 168.131 89.0487 168.827 88.7097 169.733C88.3554 170.599 87.779 171.482 86.9805 172.38C86.1972 173.319 85.3313 174.221 84.3828 175.085C83.4589 175.895 82.477 176.613 81.4371 177.238C80.382 177.824 79.266 178.25 78.0891 178.517C76.952 178.769 75.791 178.779 74.6061 178.546C72.6956 178.088 71.2155 176.964 70.1658 175.173C69.1162 173.381 68.502 171.355 68.3233 169.094C68.2732 168.245 68.3227 167.358 68.4718 166.434C68.6058 165.469 68.8499 164.554 69.2041 163.688C69.5982 162.806 70.0902 162.002 70.68 161.274C71.2546 160.506 71.9698 159.868 72.8256 159.358C74.209 158.556 75.6848 158.175 77.2531 158.215C78.8062 158.215 80.076 158.849 81.0626 160.117C81.2641 160.405 81.3935 160.744 81.4509 161.133C81.4929 161.482 81.3727 161.825 81.0901 162.162ZM101.366 146.674C101.952 147.73 102.528 148.88 103.095 150.125C103.687 151.314 104.246 152.54 104.773 153.8C105.34 155.045 105.852 156.265 106.309 157.461C106.765 158.657 107.156 159.74 107.482 160.712C109.092 161.102 110.147 161.59 110.645 162.176C111.182 162.747 111.451 163.33 111.449 163.924C111.484 164.733 111.19 165.279 110.568 165.562C109.97 165.791 109.189 165.838 108.224 165.704C107.818 166.316 107.348 166.998 106.813 167.75C106.264 168.463 105.674 169.19 105.044 169.933C104.399 170.636 103.739 171.3 103.064 171.923C102.388 172.546 101.735 173.047 101.103 173.426C99.9035 174.112 98.6563 174.315 97.3611 174.033C96.1059 173.736 95.04 172.978 94.1636 171.76C93.5743 170.935 93.1567 170.021 92.9109 169.019C92.6498 167.977 92.5909 166.926 92.7343 165.866C92.8624 164.767 93.188 163.706 93.711 162.684C94.274 161.647 95.0373 160.716 96.0011 159.891C96.2344 159.665 96.575 159.421 97.0228 159.158C97.5105 158.881 98.0211 158.663 98.5545 158.505C99.1125 158.291 99.7085 158.178 100.343 158.164C100.977 158.15 101.624 158.291 102.285 158.587C102.027 157.909 101.725 157.179 101.381 156.397C101.061 155.56 100.721 154.731 100.362 153.909C100.002 153.087 99.6453 152.333 99.2915 151.646C98.9623 150.904 98.6589 150.289 98.3813 149.801C98.0732 149.234 97.697 148.967 97.2528 148.999C96.8331 148.977 96.3824 149.172 95.9005 149.584C95.0657 150.269 94.1857 151.313 93.2605 152.717C92.3352 154.121 91.4926 155.562 90.7326 157.039C90.5109 157.535 90.1533 157.854 89.6598 157.997C89.2061 158.125 88.759 158.09 88.3183 157.893C87.8776 157.696 87.5613 157.406 87.3691 157.023C87.1618 156.599 87.1461 156.08 87.3221 155.465C87.7257 154.488 88.2013 153.462 88.749 152.385C89.2967 151.308 89.9148 150.295 90.6031 149.347C91.2762 148.359 92.0149 147.483 92.8192 146.719C93.6236 145.955 94.4964 145.371 95.4378 144.965C96.8176 144.393 98.0155 144.3 99.0316 144.689C100.033 145.037 100.811 145.699 101.366 146.674ZM99.341 162.178C98.8685 162.495 98.4095 162.968 97.9639 163.594C97.5429 164.166 97.1999 164.823 96.9347 165.563C96.6942 166.249 96.5838 166.976 96.6035 167.745C96.6478 168.459 96.8915 169.097 97.3344 169.658C97.5054 169.867 97.7334 169.986 98.0182 170.014C98.3429 170.027 98.6494 169.932 98.9378 169.731C99.8183 169.166 100.75 168.376 101.732 167.362C102.74 166.292 103.472 165.281 103.931 164.329C103.84 164.09 103.606 163.837 103.23 163.57C102.838 163.262 102.415 162.99 101.959 162.754C101.488 162.477 101 162.275 100.494 162.148C100.029 162.006 99.6446 162.016 99.341 162.178ZM129.008 168.932C129.136 169.385 129.089 169.86 128.867 170.356C128.661 170.891 128.331 171.223 127.877 171.351C127.184 171.57 126.567 171.508 126.026 171.167C125.484 170.826 125.153 170.496 125.031 170.177C124.452 168.662 123.811 167.103 123.107 165.5C122.388 163.856 121.634 162.18 120.844 160.472C120.356 160.75 119.863 160.893 119.364 160.901C118.889 160.854 118.496 160.661 118.184 160.324C117.646 159.753 117.458 159.139 117.618 158.484C117.779 157.829 118.167 157.11 118.781 156.327C118.019 154.929 117.264 153.55 116.516 152.191C115.809 150.817 115.096 149.491 114.379 148.212C114.248 147.988 114.184 147.761 114.188 147.531C114.191 147.302 114.223 147.084 114.281 146.879C114.325 146.634 114.475 146.371 114.733 146.09C115.175 145.693 115.814 145.631 116.65 145.906C117.525 146.165 118.235 146.648 118.779 147.353C119.188 148.065 119.642 148.896 120.142 149.847C120.667 150.743 121.21 151.746 121.771 152.856C122.41 152.018 122.974 151.163 123.463 150.291C123.992 149.404 124.386 148.523 124.646 147.647C124.945 146.756 125.097 145.899 125.102 145.075C125.092 144.211 124.874 143.403 124.45 142.652C124.112 142.005 123.584 141.521 122.868 141.201C122.137 140.841 121.206 140.854 120.075 141.24C119.063 141.581 118.097 142.042 117.177 142.622C116.296 143.186 115.439 143.811 114.604 144.495C113.809 145.164 113.037 145.893 112.288 146.682C111.578 147.455 110.889 148.221 110.219 148.979C109.783 149.511 109.278 149.864 108.705 150.037C108.156 150.155 107.742 150.085 107.46 149.827C106.797 149.167 106.543 148.442 106.698 147.652C106.893 146.847 107.322 145.998 107.986 145.105C108.575 144.377 109.305 143.596 110.174 142.762C111.067 141.872 112.031 141.048 113.065 140.287C114.124 139.472 115.228 138.776 116.378 138.199C117.553 137.568 118.736 137.139 119.928 136.912C121.105 136.645 122.246 136.643 123.351 136.906C124.481 137.114 125.538 137.669 126.523 138.572C127.901 140.146 128.727 141.772 129.002 143.448C129.302 145.069 129.237 146.693 128.807 148.318C128.402 149.889 127.74 151.443 126.821 152.982C125.926 154.466 124.973 155.857 123.962 157.157C124.984 159.233 125.938 161.312 126.825 163.394C127.711 165.476 128.439 167.322 129.008 168.932ZM139.91 129.347C139.982 129.776 139.787 130.102 139.324 130.325C138.861 130.547 138.47 130.719 138.151 130.841C137.17 131.262 136.172 131.757 135.157 132.328C134.181 132.883 133.176 133.541 132.142 134.301C131.725 134.643 131.184 134.781 130.519 134.716C129.855 134.65 129.303 134.221 128.864 133.43C128.742 133.111 128.762 132.806 128.925 132.516C129.088 132.225 129.299 131.939 129.557 131.658C129.984 131.221 130.525 130.785 131.182 130.352C131.823 129.879 132.487 129.465 133.174 129.111C133.901 128.742 134.611 128.448 135.304 128.229C135.981 127.97 136.562 127.817 137.046 127.769C137.76 127.725 138.372 127.833 138.883 128.095C139.434 128.341 139.776 128.759 139.91 129.347ZM146.14 149.781C146.663 150.312 147.069 150.957 147.358 151.714C147.672 152.416 147.663 152.991 147.331 153.437C146.91 154.009 146.305 154.217 145.515 154.062C144.725 153.907 144.041 153.552 143.463 152.996C142.705 152.327 141.978 151.44 141.282 150.335C140.571 149.191 139.927 148.044 139.351 146.894C138.774 145.744 138.268 144.658 137.833 143.637C137.437 142.601 137.14 141.824 136.942 141.306C136.769 140.732 136.73 140.153 136.826 139.569C136.923 138.984 137.175 138.568 137.583 138.32C138.315 138.086 139.023 138.204 139.705 138.674C140.372 139.105 140.86 139.786 141.171 140.718C141.445 141.435 141.769 142.225 142.144 143.087C142.519 143.948 142.933 144.795 143.388 145.626C143.842 146.457 144.309 147.261 144.788 148.037C145.252 148.773 145.703 149.355 146.14 149.781ZM161.114 130.839C161.856 130.509 162.682 130.4 163.592 130.509C164.501 130.618 165.116 131.091 165.436 131.928C165.615 132.636 165.403 133.219 164.802 133.677C164.225 134.081 163.738 134.358 163.339 134.51C162.542 134.815 161.692 135.162 160.791 135.552C159.889 135.942 158.976 136.36 158.05 136.805C158.472 138.151 158.865 139.417 159.226 140.603C159.628 141.774 159.984 142.826 160.294 143.758C160.589 144.65 160.844 145.375 161.057 145.933C161.27 146.491 161.404 146.782 161.459 146.807C162.275 146.312 163.113 145.696 163.972 144.956C164.856 144.162 165.713 143.355 166.542 142.536C167.395 141.662 168.209 140.803 168.983 139.959C169.781 139.06 170.535 138.224 171.245 137.451C171.567 137.099 171.903 136.902 172.252 136.86C172.642 136.803 172.929 136.899 173.116 137.147C173.363 137.555 173.509 138.116 173.553 138.83C173.597 139.544 173.459 140.259 173.139 140.975C172.724 141.682 172.14 142.544 171.387 143.562C170.659 144.526 169.843 145.5 168.94 146.484C168.038 147.468 167.092 148.4 166.104 149.28C165.14 150.105 164.235 150.725 163.388 151.14C162.119 151.762 160.985 151.784 159.988 151.205C158.991 150.627 158.208 149.716 157.642 148.471C157.075 147.226 156.491 145.759 155.892 144.069C155.332 142.365 154.734 140.561 154.098 138.657C153.371 139.026 152.664 139.387 151.977 139.741C151.315 140.04 150.68 140.351 150.073 140.674C149.555 140.872 148.931 140.973 148.202 140.978C147.513 140.967 147.039 140.623 146.78 139.945C146.689 139.706 146.667 139.349 146.714 138.875C146.761 138.4 147.085 137.933 147.686 137.475C149.214 136.572 150.936 135.64 152.853 134.68C152.257 132.761 151.704 130.894 151.193 129.079C150.683 127.264 150.213 125.617 149.785 124.136C149.642 123.643 149.621 123.171 149.723 122.721C149.826 122.271 150.016 121.993 150.295 121.886C150.957 121.587 151.664 121.523 152.414 121.693C153.189 121.808 153.667 122.105 153.85 122.583C154.208 123.999 154.635 125.595 155.13 127.37C155.665 129.129 156.216 130.929 156.781 132.768C157.548 132.384 158.29 132.054 159.008 131.78C159.75 131.451 160.452 131.137 161.114 130.839ZM184.565 114.892C185.15 115.947 185.727 117.098 186.294 118.343C186.885 119.532 187.445 120.757 187.972 122.018C188.539 123.263 189.05 124.483 189.507 125.679C189.964 126.874 190.355 127.958 190.681 128.93C192.291 129.32 193.345 129.808 193.843 130.394C194.381 130.965 194.649 131.548 194.648 132.142C194.683 132.951 194.389 133.497 193.767 133.78C193.169 134.009 192.388 134.056 191.423 133.922C191.017 134.534 190.547 135.216 190.012 135.968C189.462 136.68 188.872 137.408 188.243 138.151C187.598 138.854 186.938 139.517 186.262 140.141C185.587 140.764 184.933 141.265 184.302 141.644C183.102 142.33 181.855 142.532 180.56 142.251C179.305 141.954 178.239 141.196 177.362 139.978C176.773 139.153 176.355 138.239 176.11 137.237C175.849 136.195 175.79 135.144 175.933 134.084C176.061 132.985 176.387 131.924 176.91 130.902C177.473 129.865 178.236 128.934 179.2 128.109C179.433 127.883 179.774 127.639 180.222 127.376C180.709 127.098 181.22 126.881 181.753 126.723C182.311 126.509 182.907 126.396 183.541 126.382C184.176 126.368 184.823 126.509 185.484 126.805C185.225 126.127 184.924 125.397 184.579 124.615C184.26 123.778 183.92 122.949 183.56 122.127C183.201 121.305 182.844 120.551 182.49 119.864C182.161 119.122 181.858 118.507 181.58 118.019C181.272 117.452 180.896 117.185 180.451 117.217C180.032 117.195 179.581 117.39 179.099 117.802C178.264 118.487 177.384 119.531 176.459 120.935C175.534 122.339 174.691 123.779 173.931 125.257C173.71 125.753 173.352 126.072 172.859 126.215C172.405 126.343 171.958 126.308 171.517 126.111C171.076 125.914 170.76 125.624 170.568 125.24C170.361 124.817 170.345 124.298 170.521 123.683C170.924 122.706 171.4 121.68 171.948 120.603C172.495 119.526 173.113 118.513 173.802 117.565C174.475 116.577 175.214 115.701 176.018 114.937C176.822 114.173 177.695 113.589 178.636 113.183C180.016 112.611 181.214 112.518 182.23 112.907C183.231 113.255 184.009 113.917 184.565 114.892ZM182.54 130.396C182.067 130.713 181.608 131.185 181.163 131.812C180.742 132.384 180.399 133.041 180.133 133.781C179.893 134.467 179.783 135.194 179.802 135.963C179.847 136.677 180.09 137.315 180.533 137.876C180.704 138.085 180.932 138.203 181.217 138.232C181.542 138.245 181.848 138.15 182.137 137.949C183.017 137.384 183.949 136.594 184.931 135.58C185.938 134.51 186.671 133.499 187.13 132.547C187.038 132.308 186.805 132.055 186.428 131.788C186.037 131.48 185.613 131.208 185.158 130.971C184.686 130.695 184.198 130.493 183.693 130.366C183.228 130.224 182.843 130.234 182.54 130.396ZM193.888 104.617C195.747 108.885 197.806 113.26 200.066 117.74C202.31 122.181 204.518 126.407 206.69 130.419C207.48 132.127 207.344 133.207 206.283 133.658C206.044 133.749 205.774 133.761 205.474 133.693C205.159 133.585 204.848 133.429 204.542 133.226C204.237 133.023 203.923 132.801 203.602 132.558C203.321 132.3 203.115 132.059 202.983 131.835C201.888 129.924 200.767 127.886 199.62 125.721C198.473 123.555 197.346 121.383 196.239 119.202C195.157 116.966 194.117 114.783 193.12 112.652C192.124 110.52 191.255 108.546 190.515 106.727C190.229 105.74 190.064 104.89 190.02 104.176C189.96 103.422 190.257 102.944 190.91 102.74C191.603 102.521 192.188 102.617 192.664 103.029C193.166 103.385 193.574 103.915 193.888 104.617ZM234.585 97.2232C235.948 97.2048 237.196 97.4818 238.328 98.0542C239.5 98.6113 240.518 99.3641 241.383 100.313C242.233 101.221 242.898 102.246 243.38 103.387C243.901 104.512 244.192 105.634 244.254 106.752C244.242 108.036 244.103 109.345 243.836 110.68C243.57 112.015 243.158 113.268 242.601 114.44C242.044 115.612 241.306 116.67 240.388 117.615C239.47 118.559 238.333 119.29 236.978 119.808C235.344 120.432 233.824 120.579 232.419 120.248C231.014 119.917 229.764 119.276 228.669 118.323C227.575 117.371 226.639 116.176 225.861 114.738C225.123 113.284 224.584 111.754 224.245 110.148C223.978 108.971 223.826 107.796 223.789 106.623C223.776 105.394 223.917 104.267 224.21 103.242C224.488 102.176 224.907 101.24 225.466 100.433C226.065 99.61 226.863 99.0083 227.86 98.6277C228.418 98.4145 229.161 98.2676 230.089 98.187C231.002 98.0666 231.894 98.0686 232.763 98.1931C233.099 97.5169 233.706 97.1936 234.585 97.2232ZM233.981 102.455C233.435 102.344 232.78 102.183 232.015 101.973C231.274 101.708 230.685 101.659 230.246 101.827C229.768 102.009 229.373 102.411 229.063 103.032C228.792 103.638 228.591 104.309 228.461 105.044C228.355 105.723 228.297 106.408 228.286 107.097C228.275 107.786 228.299 108.326 228.356 108.715C228.465 109.358 228.659 110.106 228.939 110.958C229.219 111.811 229.598 112.625 230.077 113.401C230.541 114.137 231.122 114.76 231.819 115.27C232.541 115.725 233.414 115.917 234.437 115.846C235.056 115.792 235.714 115.541 236.41 115.092C237.091 114.604 237.699 113.983 238.234 113.231C238.808 112.463 239.262 111.559 239.596 110.519C239.969 109.463 240.137 108.348 240.099 107.175C240.056 105.866 239.6 104.671 238.729 103.587C237.883 102.449 236.776 101.822 235.407 101.705C235.204 102.011 234.963 102.217 234.684 102.324C234.405 102.43 234.17 102.474 233.981 102.455ZM250.912 102.427C250.385 102.72 249.704 102.912 248.871 103.002C248.077 103.077 247.389 102.769 246.805 102.078C246.533 101.725 246.369 101.354 246.311 100.965C246.239 100.536 246.551 100.097 247.247 99.6483C247.904 99.2148 248.608 98.7861 249.359 98.362C250.135 97.8828 250.919 97.4236 251.71 96.9843L246.94 91.1332C245.288 88.8412 244.371 86.6795 244.189 84.6481C244.007 82.6167 244.979 80.738 247.106 79.0121C247.981 78.3126 248.911 77.82 249.898 77.5343C250.925 77.2334 251.961 77.1347 253.005 77.2381C254.05 77.3416 255.068 77.615 256.059 78.0584C257.051 78.5018 257.948 79.118 258.752 79.9071C259.079 80.2846 259.311 80.6528 259.448 81.0115C259.61 81.3151 259.604 81.6597 259.432 82.0453C259.185 82.5961 258.816 82.943 258.322 83.0858C257.813 83.1888 257.441 83.1711 257.206 83.0327C256.679 82.7313 256.113 82.4452 255.507 82.1742C254.926 81.8482 254.335 81.6171 253.735 81.4809C253.16 81.2897 252.583 81.2133 252.004 81.2518C251.409 81.2505 250.828 81.4039 250.261 81.712C249.997 81.8584 249.712 82.1273 249.405 82.5187C249.137 82.8949 248.963 83.3953 248.882 84.0201C248.786 84.6049 248.85 85.3112 249.075 86.1388C249.339 86.9512 249.859 87.8943 250.635 88.9682C251.295 89.8581 252.025 90.8124 252.825 91.8313C253.625 92.8501 254.488 93.9135 255.414 95.0215C257.251 94.0913 258.982 93.3616 260.607 92.8323C261.514 92.5771 262.392 92.4244 263.24 92.3742C264.089 92.3241 264.844 92.4468 265.505 92.7424C265.777 93.0953 265.886 93.4417 265.833 93.7816C265.765 94.0816 265.61 94.3922 265.367 94.7133C265.149 94.9793 264.856 95.2283 264.488 95.4603C264.16 95.677 263.824 95.8738 263.48 96.0507C262.714 96.435 261.915 96.8543 261.083 97.3089C260.237 97.7236 259.351 98.1535 258.425 98.5986C259.747 100.149 260.98 101.642 262.122 103.078C263.29 104.459 264.238 105.627 264.968 106.581C265.356 107.118 265.619 107.748 265.759 108.471C265.898 109.195 265.99 109.913 266.034 110.627C266.065 111.666 265.948 112.555 265.683 113.296C265.418 114.037 264.968 114.414 264.334 114.428C263.82 114.396 263.442 114.244 263.2 113.97C262.959 113.697 262.772 113.266 262.638 112.678C262.474 112.01 262.271 111.357 262.027 110.719C261.783 110.081 261.523 109.519 261.245 109.031C260.992 108.488 260.73 108.04 260.458 107.687C260.211 107.279 260.037 107.003 259.936 106.859L254.639 100.524C254.031 100.848 253.424 101.171 252.817 101.494C252.194 101.778 251.559 102.089 250.912 102.427ZM73.7265 249.311C74.2128 249.628 74.7249 250.072 75.2628 250.643C75.8252 251.158 76.3156 251.725 76.7339 252.341C77.3841 253.326 78.0923 254.403 78.8586 255.572C79.6494 256.686 80.4432 257.867 81.2399 259.115C82.0764 260.349 82.8807 261.617 83.6527 262.921C84.4646 264.209 85.2138 265.453 85.9003 266.653C86.8094 268.315 87.3094 270.042 87.4003 271.835C87.5462 273.651 87.2849 275.418 86.6162 277.135C85.9476 278.852 84.901 280.417 83.4764 281.829C82.0518 283.241 80.2786 284.398 78.1567 285.3C77.6632 285.442 77.0736 285.394 76.388 285.153C75.7176 284.952 75.2986 284.633 75.1312 284.195C74.9238 283.771 74.9861 283.336 75.3179 282.89C75.7049 282.468 76.1223 282.126 76.5701 281.864C77.3767 281.464 78.1651 280.957 78.9354 280.343C79.7607 279.754 80.4806 279.068 81.0951 278.285C81.7095 277.502 82.2062 276.65 82.5851 275.729C83.0038 274.793 83.2175 273.798 83.226 272.744C83.2309 271.92 83.0355 270.99 82.6396 269.954C82.2285 268.877 81.7453 267.852 81.19 266.876C80.6746 265.886 80.1222 264.978 79.5328 264.152C78.9681 263.272 78.5147 262.623 78.1726 262.205C78.0002 262.591 77.7556 263.027 77.439 263.513C77.1622 263.984 76.8181 264.458 76.4065 264.935C75.9949 265.412 75.5007 265.852 74.9239 266.255C74.387 266.643 73.792 266.939 73.1391 267.143C72.4463 267.362 71.7172 267.366 70.9518 267.156C70.2263 266.931 69.515 266.563 68.8177 266.053C68.1052 265.503 67.4344 264.823 66.8052 264.013C66.2158 263.188 65.7308 262.277 65.3502 261.28C64.5164 258.858 64.3073 256.517 64.7229 254.258C65.1632 251.943 66.4409 249.788 68.556 247.792C68.7401 247.676 68.984 247.537 69.2876 247.376C69.6311 247.199 69.9898 247.062 70.3637 246.965C70.7225 246.828 71.0765 246.738 71.4258 246.696C71.815 246.639 72.1596 246.644 72.4596 246.712C73.0198 246.863 73.4142 247.238 73.6425 247.836C73.8709 248.434 73.8989 248.926 73.7265 249.311ZM69.3223 260.379C69.4898 260.818 69.7199 261.301 70.0128 261.828C70.2905 262.316 70.6942 262.596 71.224 262.667C71.8088 262.764 72.402 262.583 73.0035 262.125C73.6448 261.651 74.173 261.061 74.5881 260.355C74.9787 259.703 75.1547 259.088 75.1162 258.509C75.1023 257.875 74.8206 257.137 74.2712 256.297C73.7217 255.456 73.137 254.583 72.5173 253.678C71.8975 252.773 71.3955 251.937 71.0112 251.17C70.6243 251.592 70.2356 252.129 69.845 252.781C69.4944 253.417 69.2292 254.158 69.0496 255.003C68.8548 255.808 68.7502 256.67 68.7359 257.589C68.7614 258.493 68.9569 259.423 69.3223 260.379ZM99.4052 234.775C98.8401 235.447 98.2426 236.155 97.613 236.898C97.0232 237.626 96.4439 238.441 95.8751 239.343C95.331 240.19 94.8524 241.15 94.4395 242.221C94.0512 243.237 93.7836 244.39 93.6367 245.679C93.4181 247.498 93.4739 249.258 93.8039 250.959C94.1187 252.62 94.5255 254.223 95.0244 255.768C95.2984 256.485 95.4008 257.291 95.3313 258.186C95.2865 259.025 94.9652 259.559 94.3673 259.787C93.61 260.076 92.8476 259.934 92.08 259.359C91.3371 258.73 90.7489 258.086 90.3154 257.43C88.5568 254.859 86.933 252.282 85.444 249.699C83.9397 247.077 82.5029 244.451 81.1335 241.823C80.9203 241.265 80.9427 240.845 81.2007 240.564C81.4985 240.268 81.8742 240.056 82.3279 239.928C82.8214 239.785 83.3254 239.73 83.84 239.761C84.3546 239.793 84.7354 240.013 84.9826 240.421C85.7054 241.835 86.4985 243.313 87.3619 244.856C88.2101 246.359 88.9745 247.643 89.6552 248.707C89.297 247.291 89.2329 245.808 89.4632 244.259C89.6934 242.709 90.1287 241.218 90.7691 239.786C91.4494 238.339 92.3102 237.005 93.3514 235.785C94.4325 234.55 95.6249 233.547 96.9285 232.775C97.4959 232.467 97.9942 232.276 98.4232 232.204C98.8522 232.131 99.1845 232.164 99.4201 232.302C99.6556 232.441 99.7974 232.752 99.8453 233.236C99.933 233.705 99.7864 234.218 99.4052 234.775ZM119.995 234.445C118.791 235.956 117.391 237.313 115.796 238.516C114.185 239.679 112.343 240.657 110.27 241.449C110.883 242.813 111.708 243.777 112.745 244.34C113.767 244.863 114.846 244.999 115.983 244.747C116.652 244.583 117.282 244.32 117.874 243.957C118.506 243.578 119.055 243.163 119.522 242.71C120.013 242.203 120.437 241.699 120.793 241.197C121.15 240.695 121.446 240.217 121.683 239.761C121.92 239.305 122.223 238.961 122.591 238.729C122.944 238.457 123.235 238.323 123.465 238.327C124.099 238.313 124.527 238.835 124.748 239.892C124.597 241.411 124.099 242.857 123.254 244.231C122.393 245.564 121.271 246.632 119.888 247.435C118.704 248.161 117.365 248.604 115.873 248.763C114.381 248.922 112.899 248.689 111.427 248.064C110.16 247.497 109.051 246.687 108.101 245.634C107.151 244.582 106.365 243.42 105.743 242.151C105.151 240.961 104.802 239.747 104.694 238.509C104.627 237.256 104.792 236.074 105.189 234.963C105.572 233.812 106.194 232.752 107.057 231.783C107.92 230.814 109.054 230.015 110.459 229.387C112.127 228.613 113.803 228.338 115.487 228.563C117.172 228.787 118.552 229.47 119.627 230.612C120.235 231.248 120.566 231.875 120.62 232.494C120.714 233.097 120.505 233.748 119.995 234.445ZM111.567 233.006C111.199 233.238 110.814 233.545 110.411 233.927C110.049 234.294 109.73 234.713 109.453 235.184C109.201 235.6 108.991 236.068 108.825 236.589C108.683 237.054 108.683 237.533 108.826 238.027C109.504 237.768 110.218 237.427 110.97 237.002C111.761 236.563 112.505 236.119 113.201 235.67C113.922 235.167 114.556 234.673 115.102 234.191C115.689 233.693 116.148 233.22 116.479 232.774C115.871 232.138 115.098 231.908 114.161 232.084C113.247 232.204 112.383 232.512 111.567 233.006ZM138.351 218.185C138.936 219.24 139.513 220.39 140.08 221.635C140.671 222.825 141.231 224.05 141.758 225.31C142.325 226.555 142.836 227.775 143.293 228.971C143.75 230.167 144.141 231.25 144.467 232.222C146.077 232.612 147.131 233.1 147.629 233.686C148.167 234.257 148.435 234.84 148.434 235.434C148.469 236.243 148.175 236.789 147.553 237.072C146.955 237.301 146.174 237.348 145.209 237.214C144.803 237.826 144.333 238.508 143.798 239.26C143.248 239.973 142.658 240.7 142.029 241.443C141.384 242.146 140.724 242.81 140.048 243.433C139.373 244.056 138.719 244.557 138.088 244.936C136.888 245.622 135.641 245.825 134.346 245.543C133.091 245.246 132.025 244.488 131.148 243.27C130.559 242.445 130.141 241.531 129.896 240.529C129.635 239.487 129.576 238.436 129.719 237.376C129.847 236.277 130.173 235.216 130.696 234.194C131.259 233.157 132.022 232.226 132.986 231.401C133.219 231.175 133.56 230.931 134.008 230.668C134.495 230.391 135.006 230.173 135.539 230.015C136.097 229.802 136.693 229.688 137.327 229.674C137.962 229.66 138.609 229.801 139.27 230.097C139.011 229.419 138.71 228.689 138.365 227.907C138.046 227.07 137.706 226.241 137.346 225.419C136.987 224.597 136.63 223.843 136.276 223.156C135.947 222.414 135.644 221.799 135.366 221.311C135.058 220.744 134.682 220.477 134.238 220.509C133.818 220.487 133.367 220.682 132.885 221.094C132.051 221.779 131.17 222.823 130.245 224.227C129.32 225.631 128.477 227.072 127.717 228.549C127.496 229.045 127.138 229.365 126.645 229.507C126.191 229.635 125.744 229.6 125.303 229.403C124.862 229.206 124.546 228.916 124.354 228.533C124.147 228.109 124.131 227.59 124.307 226.975C124.71 225.999 125.186 224.972 125.734 223.895C126.281 222.818 126.9 221.805 127.588 220.857C128.261 219.869 129 218.993 129.804 218.229C130.608 217.465 131.481 216.881 132.423 216.475C133.802 215.903 135 215.81 136.016 216.199C137.017 216.547 137.795 217.209 138.351 218.185ZM136.326 233.688C135.853 234.005 135.394 234.478 134.949 235.105C134.528 235.676 134.185 236.333 133.919 237.073C133.679 237.759 133.569 238.486 133.588 239.255C133.633 239.969 133.876 240.607 134.319 241.168C134.49 241.377 134.718 241.496 135.003 241.524C135.328 241.537 135.634 241.443 135.923 241.241C136.803 240.676 137.735 239.887 138.717 238.872C139.724 237.802 140.457 236.791 140.916 235.84C140.824 235.6 140.591 235.347 140.215 235.08C139.823 234.773 139.399 234.5 138.944 234.264C138.472 233.987 137.984 233.785 137.479 233.658C137.014 233.516 136.629 233.526 136.326 233.688ZM160.791 216.6C161.533 216.271 162.359 216.161 163.268 216.271C164.178 216.38 164.792 216.853 165.112 217.69C165.291 218.398 165.08 218.981 164.479 219.439C163.902 219.842 163.414 220.12 163.016 220.272C162.218 220.577 161.369 220.924 160.468 221.314C159.566 221.704 158.652 222.122 157.726 222.567C158.149 223.913 158.541 225.179 158.903 226.365C159.305 227.536 159.661 228.588 159.971 229.52C160.266 230.412 160.52 231.137 160.733 231.695C160.947 232.253 161.081 232.544 161.136 232.569C161.952 232.074 162.789 231.457 163.649 230.718C164.533 229.924 165.389 229.117 166.218 228.298C167.072 227.424 167.886 226.565 168.66 225.721C169.458 224.822 170.212 223.986 170.921 223.213C171.244 222.861 171.58 222.664 171.929 222.622C172.318 222.565 172.606 222.661 172.792 222.909C173.039 223.317 173.185 223.878 173.23 224.592C173.274 225.306 173.136 226.021 172.816 226.737C172.401 227.443 171.817 228.306 171.064 229.324C170.336 230.288 169.52 231.261 168.617 232.246C167.714 233.23 166.769 234.162 165.78 235.042C164.817 235.867 163.911 236.487 163.065 236.901C161.795 237.523 160.662 237.545 159.665 236.967C158.667 236.389 157.885 235.477 157.318 234.233C156.751 232.988 156.168 231.52 155.568 229.831C155.009 228.127 154.411 226.323 153.775 224.419C153.048 224.788 152.341 225.149 151.654 225.503C150.992 225.802 150.357 226.113 149.75 226.436C149.232 226.634 148.608 226.735 147.879 226.74C147.19 226.729 146.716 226.385 146.457 225.707C146.365 225.468 146.343 225.111 146.39 224.636C146.437 224.162 146.762 223.695 147.363 223.237C148.891 222.334 150.613 221.402 152.53 220.441C151.934 218.522 151.38 216.656 150.87 214.841C150.359 213.026 149.89 211.379 149.461 209.898C149.318 209.405 149.298 208.933 149.4 208.483C149.502 208.033 149.693 207.754 149.972 207.648C150.634 207.349 151.34 207.285 152.09 207.455C152.865 207.57 153.344 207.867 153.527 208.345C153.885 209.761 154.312 211.357 154.807 213.131C155.342 214.891 155.892 216.69 156.458 218.53C157.225 218.145 157.967 217.816 158.684 217.542C159.426 217.213 160.128 216.899 160.791 216.6ZM186.487 190.342C186.77 190.964 187.087 191.734 187.437 192.651C187.827 193.552 188.248 194.534 188.699 195.594C189.15 196.655 189.628 197.729 190.134 198.814C190.625 199.86 191.14 200.85 191.681 201.786C191.898 200.561 192.286 199.545 192.845 198.738C193.445 197.915 194.12 197.292 194.871 196.868C196.046 196.236 197.176 195.965 198.26 196.053C199.344 196.141 200.337 196.469 201.24 197.038C202.127 197.567 202.893 198.257 203.537 199.107C204.166 199.917 204.648 200.76 204.983 201.637C205.699 203.51 205.863 205.435 205.476 207.41C205.128 209.369 204.533 211.218 203.689 212.956C202.886 214.679 202.006 216.202 201.051 217.527C200.135 218.836 199.466 219.776 199.045 220.348C198.37 220.971 197.623 221.348 196.805 221.478C195.987 221.608 195.397 221.559 195.036 221.331C194.654 220.929 194.442 220.553 194.4 220.204C194.343 219.815 194.38 219.435 194.513 219.065C194.646 218.695 194.833 218.349 195.076 218.028C195.343 217.652 195.559 217.318 195.722 217.027C193.09 213.009 190.663 208.866 188.439 204.6C186.201 200.294 184.238 195.814 182.552 191.16C182.247 190.363 182.231 189.844 182.505 189.602C182.818 189.346 183.094 189.172 183.333 189.08C183.921 188.947 184.503 188.976 185.079 189.167C185.654 189.358 186.124 189.75 186.487 190.342ZM201.268 202.851C200.75 201.496 200.054 200.689 199.178 200.429C198.287 200.13 197.498 200.157 196.811 200.511C196.244 200.819 195.79 201.244 195.448 201.785C195.107 202.327 194.856 202.925 194.695 203.58C194.535 204.236 194.476 204.92 194.521 205.634C194.605 206.332 194.781 206.973 195.049 207.556C195.51 208.522 196.02 209.56 196.581 210.67C197.182 211.765 197.758 212.733 198.307 213.573C198.777 212.891 199.265 212.134 199.769 211.302C200.258 210.43 200.664 209.521 200.988 208.576C201.352 207.615 201.581 206.659 201.675 205.71C201.754 204.721 201.618 203.768 201.268 202.851ZM224.641 186.934C224.076 187.607 223.479 188.315 222.849 189.058C222.259 189.785 221.68 190.6 221.111 191.503C220.567 192.35 220.088 193.309 219.676 194.38C219.287 195.397 219.02 196.549 218.873 197.839C218.654 199.658 218.71 201.418 219.04 203.119C219.355 204.78 219.761 206.383 220.26 207.928C220.534 208.645 220.637 209.451 220.567 210.345C220.523 211.185 220.201 211.718 219.603 211.947C218.846 212.236 218.084 212.093 217.316 211.519C216.573 210.889 215.985 210.246 215.551 209.589C213.793 207.018 212.169 204.442 210.68 201.859C209.176 199.236 207.739 196.611 206.369 193.983C206.156 193.424 206.179 193.005 206.437 192.724C206.734 192.427 207.11 192.215 207.564 192.088C208.057 191.945 208.561 191.889 209.076 191.921C209.591 191.953 209.971 192.173 210.219 192.581C210.941 193.994 211.734 195.473 212.598 197.016C213.446 198.519 214.21 199.802 214.891 200.867C214.533 199.451 214.469 197.968 214.699 196.418C214.929 194.869 215.365 193.378 216.005 191.946C216.685 190.499 217.546 189.165 218.587 187.945C219.668 186.71 220.861 185.706 222.165 184.934C222.732 184.626 223.23 184.436 223.659 184.363C224.088 184.291 224.42 184.324 224.656 184.462C224.892 184.6 225.033 184.912 225.081 185.396C225.169 185.865 225.022 186.377 224.641 186.934ZM236.856 177.952C236.929 178.381 236.733 178.707 236.27 178.929C235.807 179.152 235.416 179.324 235.097 179.446C234.116 179.866 233.118 180.362 232.103 180.932C231.127 181.488 230.123 182.145 229.089 182.906C228.671 183.248 228.13 183.386 227.466 183.32C226.801 183.254 226.249 182.826 225.81 182.035C225.688 181.716 225.709 181.411 225.872 181.12C226.035 180.83 226.245 180.544 226.503 180.262C226.93 179.825 227.471 179.39 228.128 178.957C228.769 178.483 229.433 178.07 230.12 177.716C230.847 177.347 231.557 177.053 232.25 176.834C232.927 176.575 233.508 176.422 233.992 176.374C234.706 176.33 235.319 176.438 235.83 176.7C236.381 176.946 236.723 177.363 236.856 177.952ZM243.086 198.386C243.609 198.917 244.015 199.561 244.304 200.319C244.618 201.021 244.609 201.595 244.277 202.042C243.856 202.614 243.251 202.822 242.461 202.667C241.671 202.512 240.987 202.157 240.409 201.601C239.651 200.931 238.924 200.044 238.228 198.94C237.517 197.796 236.873 196.649 236.297 195.499C235.721 194.349 235.215 193.263 234.779 192.242C234.383 191.206 234.086 190.428 233.888 189.91C233.715 189.337 233.676 188.758 233.773 188.173C233.869 187.588 234.121 187.172 234.529 186.925C235.262 186.691 235.969 186.809 236.651 187.279C237.318 187.71 237.806 188.391 238.117 189.323C238.391 190.04 238.715 190.83 239.09 191.691C239.465 192.553 239.88 193.399 240.334 194.23C240.789 195.062 241.256 195.865 241.735 196.641C242.199 197.378 242.649 197.959 243.086 198.386ZM258.06 179.443C258.802 179.114 259.628 179.004 260.538 179.113C261.447 179.223 262.062 179.696 262.382 180.533C262.561 181.241 262.35 181.824 261.748 182.282C261.171 182.685 260.684 182.963 260.285 183.115C259.488 183.42 258.639 183.767 257.737 184.157C256.836 184.547 255.922 184.965 254.996 185.41C255.418 186.755 255.811 188.022 256.173 189.208C256.574 190.379 256.93 191.43 257.241 192.362C257.536 193.254 257.79 193.98 258.003 194.538C258.216 195.096 258.35 195.387 258.405 195.411C259.221 194.917 260.059 194.3 260.918 193.561C261.802 192.766 262.659 191.96 263.488 191.141C264.342 190.266 265.155 189.407 265.929 188.564C266.728 187.665 267.482 186.829 268.191 186.056C268.513 185.704 268.849 185.507 269.199 185.465C269.588 185.408 269.875 185.503 270.062 185.752C270.309 186.16 270.455 186.721 270.499 187.435C270.543 188.149 270.405 188.863 270.085 189.58C269.67 190.286 269.086 191.149 268.333 192.167C267.605 193.13 266.79 194.104 265.887 195.089C264.984 196.073 264.038 197.005 263.05 197.885C262.086 198.71 261.181 199.33 260.335 199.744C259.065 200.366 257.931 200.388 256.934 199.81C255.937 199.232 255.155 198.32 254.588 197.075C254.021 195.83 253.438 194.363 252.838 192.674C252.278 190.97 251.68 189.165 251.044 187.262C250.318 187.631 249.611 187.992 248.924 188.346C248.261 188.645 247.627 188.956 247.019 189.279C246.501 189.477 245.878 189.578 245.148 189.582C244.459 189.572 243.985 189.228 243.726 188.55C243.635 188.311 243.613 187.954 243.66 187.479C243.707 187.004 244.031 186.538 244.633 186.08C246.16 185.177 247.882 184.245 249.799 183.284C249.203 181.365 248.65 179.498 248.139 177.684C247.629 175.869 247.159 174.222 246.731 172.741C246.588 172.247 246.568 171.776 246.67 171.326C246.772 170.876 246.962 170.597 247.241 170.491C247.904 170.192 248.61 170.128 249.36 170.298C250.135 170.413 250.613 170.71 250.796 171.188C251.154 172.604 251.581 174.199 252.076 175.974C252.612 177.734 253.162 179.533 253.728 181.372C254.494 180.988 255.236 180.659 255.954 180.385C256.696 180.056 257.398 179.742 258.06 179.443ZM281.511 163.497C282.097 164.552 282.673 165.702 283.24 166.947C283.831 168.137 284.391 169.362 284.918 170.622C285.485 171.867 285.997 173.088 286.453 174.283C286.91 175.479 287.301 176.563 287.627 177.535C289.237 177.924 290.292 178.412 290.79 178.999C291.327 179.57 291.596 180.152 291.594 180.746C291.629 181.555 291.335 182.101 290.713 182.385C290.115 182.613 289.334 182.66 288.369 182.527C287.963 183.138 287.493 183.82 286.958 184.573C286.408 185.285 285.819 186.013 285.189 186.756C284.544 187.459 283.884 188.122 283.209 188.746C282.533 189.369 281.88 189.87 281.248 190.248C280.048 190.935 278.801 191.137 277.506 190.855C276.251 190.558 275.185 189.801 274.309 188.583C273.719 187.757 273.302 186.844 273.056 185.841C272.795 184.799 272.736 183.748 272.879 182.689C273.007 181.589 273.333 180.529 273.856 179.507C274.419 178.47 275.182 177.539 276.146 176.714C276.379 176.488 276.72 176.243 277.168 175.981C277.655 175.703 278.166 175.485 278.699 175.327C279.257 175.114 279.853 175.001 280.488 174.987C281.122 174.973 281.769 175.114 282.43 175.409C282.171 174.732 281.87 174.002 281.526 173.22C281.206 172.383 280.866 171.554 280.506 170.732C280.147 169.91 279.79 169.156 279.436 168.469C279.107 167.727 278.804 167.112 278.526 166.624C278.218 166.057 277.842 165.789 277.398 165.822C276.978 165.799 276.527 165.995 276.045 166.407C275.211 167.091 274.331 168.135 273.405 169.539C272.48 170.943 271.638 172.384 270.878 173.862C270.656 174.358 270.298 174.677 269.805 174.82C269.351 174.948 268.904 174.913 268.463 174.716C268.023 174.519 267.706 174.228 267.514 173.845C267.307 173.422 267.291 172.903 267.467 172.287C267.871 171.311 268.346 170.284 268.894 169.207C269.442 168.13 270.06 167.118 270.748 166.17C271.421 165.182 272.16 164.306 272.964 163.542C273.769 162.778 274.641 162.193 275.583 161.788C276.963 161.215 278.16 161.123 279.177 161.511C280.177 161.86 280.956 162.522 281.511 163.497ZM279.486 179C279.013 179.318 278.554 179.79 278.109 180.417C277.688 180.989 277.345 181.645 277.08 182.386C276.839 183.072 276.729 183.799 276.748 184.568C276.793 185.282 277.036 185.919 277.479 186.481C277.65 186.69 277.878 186.808 278.163 186.836C278.488 186.849 278.794 186.755 279.083 186.554C279.963 185.989 280.895 185.199 281.877 184.184C282.885 183.114 283.617 182.104 284.076 181.152C283.985 180.913 283.751 180.66 283.375 180.392C282.983 180.085 282.56 179.813 282.104 179.576C281.633 179.299 281.145 179.098 280.639 178.971C280.174 178.829 279.79 178.839 279.486 179ZM297.226 154.89C297.299 155.319 297.104 155.645 296.64 155.868C296.177 156.09 295.786 156.262 295.468 156.384C294.486 156.805 293.488 157.3 292.473 157.871C291.498 158.426 290.493 159.084 289.459 159.844C289.041 160.186 288.5 160.325 287.836 160.259C287.171 160.193 286.619 159.764 286.18 158.973C286.058 158.654 286.079 158.349 286.242 158.059C286.405 157.768 286.615 157.482 286.873 157.201C287.3 156.764 287.842 156.329 288.498 155.895C289.139 155.422 289.804 155.008 290.491 154.654C291.217 154.285 291.927 153.991 292.62 153.772C293.298 153.514 293.879 153.36 294.363 153.312C295.076 153.268 295.689 153.377 296.2 153.638C296.751 153.884 297.093 154.302 297.226 154.89ZM303.456 175.324C303.979 175.856 304.385 176.5 304.674 177.257C304.988 177.959 304.979 178.534 304.647 178.98C304.226 179.552 303.621 179.76 302.831 179.606C302.041 179.451 301.357 179.095 300.779 178.539C300.021 177.87 299.294 176.983 298.598 175.879C297.887 174.734 297.243 173.587 296.667 172.437C296.091 171.287 295.585 170.202 295.149 169.18C294.753 168.144 294.456 167.367 294.258 166.849C294.085 166.276 294.046 165.697 294.143 165.112C294.239 164.527 294.491 164.111 294.899 163.864C295.632 163.629 296.339 163.747 297.021 164.218C297.688 164.648 298.177 165.329 298.487 166.261C298.761 166.979 299.085 167.768 299.46 168.63C299.835 169.491 300.25 170.338 300.704 171.169C301.159 172 301.626 172.804 302.105 173.58C302.569 174.316 303.019 174.898 303.456 175.324ZM307.269 156.398C307.617 156.95 307.996 157.582 308.405 158.293C308.838 158.95 309.287 159.646 309.751 160.383C310.199 161.079 310.636 161.803 311.06 162.554C311.484 163.306 311.873 164.025 312.227 164.712C312.309 163.493 312.409 162.199 312.525 160.83C312.642 159.461 312.836 158.176 313.108 156.976C313.405 155.721 313.791 154.637 314.264 153.726C314.778 152.799 315.473 152.168 316.35 151.833C317.666 151.33 318.944 151.39 320.187 152.011C321.469 152.618 322.683 153.524 323.829 154.731C324.999 155.882 326.061 157.166 327.013 158.584C327.966 160.001 328.79 161.262 329.486 162.367C330.136 163.351 329.963 164.331 328.965 165.306C328.513 165.798 328.11 165.998 327.755 165.905C327.4 165.813 327.164 165.674 327.048 165.49C326.666 165.088 326.087 164.35 325.312 163.276C324.576 162.187 323.773 161.101 322.902 160.017C322.072 158.919 321.242 158.003 320.414 157.268C319.585 156.534 318.887 156.322 318.32 156.63C317.617 156.944 317.185 157.725 317.023 158.975C316.865 159.994 316.724 161.121 316.602 162.356C316.504 163.535 316.422 164.754 316.355 166.013C316.272 167.232 316.197 168.471 316.13 169.729C316.088 170.933 316.035 172.05 315.971 173.079C315.799 173.464 315.516 173.801 315.123 174.088C314.755 174.32 314.321 174.44 313.822 174.448C313.378 174.48 312.983 174.403 312.637 174.215C312.291 174.028 312.065 173.794 311.959 173.515C310.412 170.543 308.953 167.858 307.58 165.46C306.246 163.046 304.771 160.618 303.153 158.176C302.524 157.366 302.19 156.671 302.151 156.092C302.137 155.458 302.652 155.01 303.694 154.749C305.18 154.455 306.372 155.005 307.269 156.398Z"
        fill="black"
    />
</svg>