<svg
    xmlns="http://www.w3.org/2000/svg"
    width="95"
    height="95"
    viewBox="0 0 95 95"
    fill="none"
>
    <path
        d="M65 34.5C65 52.4493 59.9493 69 42 69C24.0507 69 0 52.4493 0 34.5C0 16.5508 10.5 10.5 32.5 2.00001C54.5 -6.49999 65 16.5508 65 34.5Z"
        fill="#FFE9E9">
    </path>
    <path
        d="M33.9507 42.0337H31.4882C30.5927 42.0337 29.8674 41.3084 29.8674 40.4129C29.8674 39.5175 30.5927 38.7921 31.4882 38.7921H35.8221C36.4131 38.7921 36.8967 38.3086 36.8967 37.7176C36.8967 37.1266 36.4131 36.6431 35.8221 36.6431H33.7895V35.1477C33.7895 34.5567 33.3059 34.0731 32.7149 34.0731C32.1239 34.0731 31.6404 34.5567 31.6404 35.1477V36.6431H31.4882C29.4107 36.6431 27.7183 38.3355 27.7183 40.4129C27.7183 42.4904 29.4107 44.1828 31.4882 44.1828H33.9507C34.8461 44.1828 35.5714 44.9081 35.5714 45.8035C35.5714 46.699 34.8461 47.4243 33.9507 47.4243H29.5361C28.9451 47.4243 28.4615 47.9078 28.4615 48.4988C28.4615 49.0898 28.9451 49.5734 29.5361 49.5734H31.6493V51.1046C31.6493 51.6956 32.1329 52.1791 32.7239 52.1791C33.3149 52.1791 33.7984 51.6956 33.7984 51.1046V49.5734H33.9775C33.9865 49.5734 33.9954 49.5734 34.0044 49.5734C36.0639 49.5465 37.7205 47.8631 37.7205 45.8035C37.7205 43.7261 36.0281 42.0337 33.9507 42.0337Z"
        fill="#11141B">
    </path>
    <path
        d="M48.8688 39.598C47.7406 37.0012 46.1825 34.485 44.2125 32.13C41.8306 29.2645 39.4576 27.3483 38.2488 26.4618L42.8156 17.9908C43.0394 17.5699 42.9678 17.0506 42.6186 16.7193C41.4366 15.5641 40.183 15 38.7861 15C37.5056 15 36.3325 15.4835 35.3117 15.9134C34.5058 16.2447 33.7447 16.567 33.1268 16.567C32.9388 16.567 32.7776 16.5402 32.6164 16.4775C30.4852 15.6985 28.8466 15.2149 27.2616 15.2149C25.2558 15.2149 23.5455 16.0208 21.871 17.7401C21.5218 18.0983 21.4681 18.6624 21.7456 19.0833L26.6706 26.5244C25.4528 27.4288 23.1246 29.3272 20.7875 32.13C18.8265 34.485 17.2594 37.0012 16.1312 39.598C14.7164 42.8664 14 46.2781 14 49.7345C14 54.3282 17.743 58.0712 22.3366 58.0712H42.6634C47.257 58.0712 51 54.3282 51 49.7345C51 46.2781 50.2836 42.8664 48.8688 39.598ZM24.038 18.6355C25.0767 17.7401 26.0707 17.3461 27.2616 17.3461C28.5332 17.3461 29.9659 17.7759 31.8732 18.4833C32.2672 18.6266 32.688 18.6982 33.1179 18.6982C34.1655 18.6982 35.1684 18.2863 36.1266 17.8833C37.0489 17.4983 37.9264 17.1312 38.7771 17.1312C39.189 17.1312 39.7711 17.2028 40.5053 17.7222L36.2072 25.7096H28.7212L24.038 18.6355ZM42.6634 55.9221H22.3366C18.925 55.9221 16.1491 53.1462 16.1491 49.7345C16.1491 43.9947 18.2534 38.5503 22.3904 33.5537C25.0051 30.3928 27.6646 28.4318 28.4705 27.8587H36.5116C37.3265 28.4228 39.977 30.3928 42.5917 33.5537C46.7377 38.5503 48.833 43.9857 48.833 49.7345C48.8509 53.1462 46.075 55.9221 42.6634 55.9221Z"
        fill="#11141B">
    </path>
</svg>