<svg
  xmlns="http://www.w3.org/2000/svg"
  width="81"
  height="87"
  viewBox="0 0 81 87"
  fill="none">
  <path
    d="M76 40.3938C76 61.5199 70.0945 81 49.1077 81C28.1209 81 0 61.5199 0 40.3938C0 19.2677 12.2769 12.1461 38 2.14164C63.7231 -7.86278 76 19.2677 76 40.3938Z"
    fill="#FFE9E9">
  </path>
  <path
    d="M67.6349 55.1265V41.8765L32.408 29.443L13.3649 35.791V49.0677L48.612 63.5804L67.6349 55.1265ZM27.5399 42.7537V45.0517L14.9849 39.8823V37.5843L27.5399 42.7537ZM31.568 40.1334C29.3357 38.7693 28.4795 37.513 28.6512 36.848C28.7954 36.2924 29.782 35.6282 32.1156 35.4297C34.3828 35.2369 37.2477 35.5463 40.2059 36.294L31.568 40.1334ZM45.4134 35.7521L49.1159 37.0594L34.1341 43.7176L30.6859 42.2977L45.4134 35.7521ZM66.0149 50.0243L49.4099 57.4034V55.1265L66.0149 47.7466V50.0243ZM47.7899 53.3906L35.2349 48.2204V45.9224L47.7899 51.0919V53.3906ZM35.2349 49.9724L47.7899 55.1427V57.4406L35.2349 52.2704V49.9724ZM66.0149 45.9743L49.4099 53.3534V51.0757L66.0149 43.6958V45.9743ZM48.5877 49.6695L36.2045 44.5706L37.0039 44.215C37.4259 44.3413 37.8496 44.4669 38.2878 44.5803C40.8782 45.2518 43.4256 45.6041 45.6256 45.6041C46.1521 45.6041 46.6599 45.5839 47.1435 45.5426C50.7051 45.2404 51.7719 43.9477 52.0392 42.9173C52.3899 41.5695 51.5086 40.0751 49.5695 38.6308L51.3393 37.8443L64.6363 42.5375L48.5877 49.6695ZM47.8361 39.4003C49.9947 40.7798 50.6225 41.9283 50.4718 42.5099C50.3276 43.0656 49.341 43.7298 47.0074 43.9274C44.8545 44.1121 42.158 43.8383 39.3537 43.1701L47.8361 39.4003ZM14.9849 41.6343L27.5399 46.8045V49.1025L14.9849 43.9323V41.6343ZM29.1599 43.4212L33.6149 45.2558V55.6538L29.1599 53.8191V43.4212ZM35.2349 54.0224L47.7899 59.1927V61.4906L35.2349 56.3212V54.0224ZM49.4099 61.4534V59.1765L66.0149 51.7966V54.0743L49.4099 61.4534ZM43.1907 34.968L42.5144 35.2685C41.9619 35.096 41.4022 34.9275 40.8328 34.7793C37.6228 33.9458 34.4775 33.6056 31.9787 33.8154C28.4171 34.1183 27.3504 35.4103 27.0831 36.4414C26.7169 37.854 27.6873 39.4133 29.8079 40.915L28.6156 41.4448L16.4955 36.4544L32.391 31.1553L43.1907 34.968ZM14.9849 45.6843L27.5399 50.8545V53.1517L14.9849 47.9823V45.6843Z"
    fill="black">
  </path>
</svg>