<svg
    xmlns="http://www.w3.org/2000/svg"
    width="95"
    height="95"
    viewBox="0 0 95 95"
    fill="none">
    <path
        d="M68.3798 72.2981C54.7018 83.9207 38.8189 90.789 27.1963 77.1109C15.5736 63.4328 12.6123 34.3881 26.2904 22.7654C39.9684 11.1428 51.3784 15.2261 72.1014 26.487C92.8244 37.7479 82.0579 60.6754 68.3798 72.2981Z"
        fill="#FFE9E9">
    </path>
    <path
        d="M68.8944 55.7639C69.7614 54.658 70.1773 53.4724 70.1242 52.2514C70.0711 50.9065 69.4695 49.8537 68.974 49.2078C69.5491 47.7744 69.7703 45.5183 67.8503 43.7664C66.4435 42.4835 64.0546 41.9084 60.7456 42.0677C58.4187 42.1738 56.4722 42.6074 56.3925 42.6251H56.3837C55.9413 42.7047 55.4724 42.802 54.9946 42.9082C54.9592 42.3419 55.0565 40.9352 56.1005 37.7677C57.3392 33.9985 57.2684 31.1142 55.8705 29.1854C54.4018 27.1593 52.0571 27 51.367 27C50.7034 27 50.0929 27.2743 49.6594 27.7786C48.6773 28.92 48.7923 31.0257 48.9162 31.999C47.7483 35.1311 44.4746 42.8109 41.7053 44.9432C41.6522 44.9786 41.608 45.0228 41.5637 45.067C40.7498 45.9253 40.2012 46.8543 39.8296 47.6683C39.3076 47.3851 38.7148 47.2259 38.0777 47.2259H32.6806C30.6457 47.2259 29 48.8804 29 50.9065V65.2841C29 67.3191 30.6545 68.9647 32.6806 68.9647H38.0777C38.8652 68.9647 39.5996 68.717 40.2012 68.2923L42.2804 68.54C42.5989 68.5843 48.2615 69.3009 54.0744 69.1859C55.1273 69.2656 56.1182 69.3098 57.0384 69.3098C58.6221 69.3098 60.0024 69.1859 61.1526 68.9382C63.86 68.3631 65.7092 67.2129 66.647 65.523C67.3637 64.2312 67.3637 62.9483 67.2487 62.1343C69.0094 60.5417 69.319 58.781 69.2571 57.5423C69.2217 56.8257 69.0625 56.2152 68.8944 55.7639ZM32.6806 66.5758C31.964 66.5758 31.3889 65.9919 31.3889 65.2841V50.8977C31.3889 50.181 31.9728 49.6059 32.6806 49.6059H38.0777C38.7944 49.6059 39.3695 50.1899 39.3695 50.8977V65.2752C39.3695 65.9919 38.7856 66.567 38.0777 66.567H32.6806V66.5758ZM66.6293 54.7288C66.2577 55.118 66.1869 55.7108 66.4701 56.1709C66.4701 56.1798 66.8328 56.7991 66.8771 57.6485C66.939 58.8075 66.3816 59.8339 65.2137 60.7098C64.7979 61.0283 64.6297 61.5769 64.8067 62.0724C64.8067 62.0812 65.1872 63.2491 64.5678 64.3551C63.975 65.4168 62.6567 66.1777 60.6571 66.6024C59.0557 66.9474 56.8791 67.0094 54.2071 66.797C54.1717 66.797 54.1275 66.797 54.0833 66.797C48.3942 66.9209 42.6432 66.1777 42.5812 66.1688H42.5724L41.6788 66.0627C41.7319 65.8149 41.7584 65.5495 41.7584 65.2841V50.8977C41.7584 50.5172 41.6965 50.1456 41.5903 49.8006C41.7495 49.2078 42.1919 47.8895 43.236 46.7658C47.2086 43.616 51.0927 32.9899 51.2608 32.5298C51.3316 32.344 51.3493 32.1405 51.3139 31.937C51.1635 30.9461 51.2166 29.7339 51.4289 29.3712C51.8979 29.38 53.1631 29.5128 53.924 30.5656C54.8265 31.8132 54.7911 34.0428 53.8178 36.9979C52.3314 41.5014 52.2076 43.8726 53.3843 44.9166C53.9682 45.4386 54.7468 45.4652 55.3131 45.2617C55.8528 45.1378 56.366 45.0317 56.8526 44.952C56.888 44.9432 56.9322 44.9343 56.9676 44.9255C59.6839 44.3327 64.5501 43.9699 66.24 45.5094C67.6734 46.8189 66.6559 48.553 66.5409 48.7388C66.2135 49.2343 66.3108 49.8802 66.7532 50.2783C66.7621 50.2872 67.6911 51.1631 67.7353 52.3399C67.7707 53.1273 67.3991 53.9325 66.6293 54.7288Z"
        fill="#11141B">
    </path>
</svg>