<svg
  xmlns="http://www.w3.org/2000/svg"
  width="76"
  height="81"
  viewBox="0 0 76 81"
  fill="none">
  <path
    d="M76 40.3938C76 61.5199 70.0945 81 49.1077 81C28.1209 81 0 61.5199 0 40.3938C0 19.2677 12.2769 12.1461 38 2.14164C63.7231 -7.86278 76 19.2677 76 40.3938Z"
    fill="#FFE9E9">
  </path>
  <path
    d="M43.5204 42.555C45.222 40.9178 47.495 40.0087 49.8563 40.0208C51.5478 39.9841 53.2135 40.4407 54.6498 41.335C56.0861 42.2292 57.2309 43.5224 57.9444 45.0566C58.0365 45.2661 58.208 45.4305 58.4212 45.5137C58.6344 45.5969 58.8719 45.5922 59.0816 45.5005C59.2912 45.4088 59.456 45.2377 59.5397 45.0246C59.6233 44.8116 59.6191 44.5741 59.5278 44.3642C58.9308 43.0366 58.0553 41.8528 56.9607 40.8932C55.8661 39.9336 54.5779 39.2206 53.1835 38.8025C53.8792 38.2184 54.4371 37.4877 54.8172 36.6627C55.1974 35.8377 55.3903 34.9388 55.3823 34.0305C55.3823 30.7275 52.904 28.0402 49.8581 28.0402C48.7004 28.0698 47.5806 28.4597 46.655 29.1557C45.7293 29.8517 45.0437 30.8191 44.6938 31.9231C43.6857 31.14 42.5455 30.544 41.3272 30.1632C42.0232 29.5792 42.5813 28.8484 42.9616 28.0233C43.3419 27.1982 43.5349 26.2991 43.5269 25.3906C43.5269 22.0876 41.0486 19.4003 38.0023 19.4003C34.9564 19.4003 32.4782 22.0876 32.4782 25.3906C32.4701 26.2991 32.6631 27.1981 33.0434 28.0232C33.4236 28.8483 33.9817 29.579 34.6776 30.1631C33.4581 30.5445 32.3168 31.141 31.3075 31.9244C30.9577 30.8201 30.2722 29.8524 29.3464 29.1561C28.4206 28.4599 27.3007 28.0698 26.1427 28.0402C23.0968 28.0402 20.6185 30.7275 20.6185 34.0305C20.6105 34.9389 20.8034 35.8377 21.1836 36.6628C21.5637 37.4878 22.1216 38.2185 22.8173 38.8025C21.4229 39.2206 20.1347 39.9336 19.0401 40.8932C17.9455 41.8528 17.07 43.0366 16.473 44.3642C16.4271 44.4683 16.4023 44.5803 16.3998 44.694C16.3973 44.8077 16.4173 44.9207 16.4586 45.0266C16.4999 45.1326 16.5616 45.2293 16.6404 45.3113C16.7191 45.3933 16.8133 45.459 16.9175 45.5045C17.0216 45.5501 17.1338 45.5746 17.2475 45.5767C17.3611 45.5789 17.4741 45.5586 17.5799 45.5169C17.6857 45.4753 17.7823 45.4132 17.864 45.3342C17.9458 45.2552 18.0112 45.1609 18.0564 45.0566C18.7699 43.5224 19.9147 42.2292 21.351 41.335C22.7873 40.4407 24.453 39.9841 26.1445 40.0208C28.5081 40.0076 30.7832 40.9184 32.4848 42.5588C32.4957 43.4428 32.6971 44.314 33.0753 45.113C33.4535 45.912 33.9996 46.62 34.6763 47.1888C33.4572 47.5703 32.3161 48.1668 31.3071 48.9501C30.9571 47.8461 30.2716 46.8787 29.3459 46.1827C28.4202 45.4866 27.3004 45.0967 26.1427 45.0671C23.0968 45.0671 20.6185 47.7544 20.6185 51.0575C20.6105 51.966 20.8035 52.8651 21.1838 53.6902C21.5642 54.5153 22.1223 55.2461 22.8183 55.8301C21.4243 56.2482 20.1364 56.9609 19.0417 57.92C17.9471 58.8791 17.0712 60.0621 16.4735 61.3891C16.4273 61.4931 16.4022 61.6051 16.3995 61.7189C16.3968 61.8326 16.4166 61.9458 16.4577 62.0519C16.4988 62.1579 16.5605 62.2548 16.6392 62.337C16.7179 62.4192 16.8121 62.485 16.9163 62.5307C17.0205 62.5764 17.1327 62.601 17.2464 62.6032C17.3602 62.6054 17.4733 62.5851 17.5792 62.5435C17.685 62.5019 17.7817 62.4398 17.8635 62.3607C17.9453 62.2817 18.0107 62.1872 18.0559 62.0828C18.7702 60.5492 19.9152 59.2566 21.3515 58.3627C22.7878 57.4688 24.4532 57.0121 26.1445 57.0485C27.8359 57.012 29.5013 57.4686 30.9376 58.3625C32.3739 59.2564 33.5189 60.549 34.2331 62.0826C34.2787 62.1865 34.3442 62.2804 34.426 62.359C34.5078 62.4376 34.6043 62.4992 34.71 62.5405C34.8156 62.5818 34.9284 62.6019 35.0418 62.5996C35.1552 62.5973 35.2671 62.5727 35.371 62.5272C35.4749 62.4817 35.5688 62.4161 35.6474 62.3343C35.726 62.2525 35.7877 62.156 35.829 62.0503C35.8702 61.9447 35.8903 61.8319 35.888 61.7185C35.8857 61.6051 35.8611 61.4932 35.8156 61.3893C35.2178 60.0618 34.3417 58.8783 33.2465 57.919C32.1514 56.9597 30.8628 56.247 29.4681 55.8292C30.1638 55.2451 30.7217 54.5145 31.1018 53.6895C31.4819 52.8645 31.6748 51.9657 31.6668 51.0574C31.6668 51.0191 31.6621 50.982 31.6615 50.9438C33.3701 49.3154 35.6399 48.407 38.0003 48.4068C40.3606 48.4066 42.6305 49.3148 44.3394 50.9429C44.3387 50.9814 44.334 51.0188 44.334 51.0574C44.326 51.9657 44.5189 52.8645 44.899 53.6895C45.2791 54.5145 45.837 55.2451 46.5327 55.8292C45.138 56.247 43.8494 56.9597 42.7543 57.919C41.6591 58.8783 40.783 60.0618 40.1852 61.3893C40.1397 61.4932 40.1151 61.6051 40.1128 61.7185C40.1105 61.8319 40.1306 61.9447 40.1718 62.0503C40.2131 62.156 40.2748 62.2525 40.3534 62.3343C40.432 62.4161 40.5259 62.4817 40.6298 62.5272C40.7337 62.5727 40.8456 62.5973 40.959 62.5996C41.0724 62.6019 41.1852 62.5818 41.2908 62.5405C41.3965 62.4992 41.493 62.4376 41.5748 62.359C41.6566 62.2804 41.7222 62.1865 41.7677 62.0826C42.4819 60.549 43.6269 59.2564 45.0632 58.3625C46.4995 57.4686 48.1649 57.012 49.8563 57.0485C51.5476 57.0121 53.213 57.4688 54.6493 58.3627C56.0856 59.2566 57.2306 60.5492 57.9449 62.0828C57.9904 62.1867 58.056 62.2806 58.1379 62.3592C58.2197 62.4378 58.3162 62.4994 58.4219 62.5407C58.5276 62.582 58.6404 62.602 58.7538 62.5997C58.8672 62.5974 58.9791 62.5727 59.083 62.5272C59.1869 62.4816 59.2808 62.416 59.3594 62.3342C59.4379 62.2524 59.4996 62.1558 59.5409 62.0501C59.5821 61.9445 59.6022 61.8317 59.5999 61.7183C59.5975 61.6048 59.5729 61.493 59.5273 61.3891C58.9296 60.0621 58.0537 58.8791 56.9591 57.92C55.8644 56.9609 54.5765 56.2482 53.1825 55.8301C53.8785 55.2461 54.4366 54.5153 54.817 53.6902C55.1973 52.8651 55.3903 51.966 55.3823 51.0575C55.3823 47.7544 52.904 45.0671 49.8581 45.0671C48.7006 45.0967 47.581 45.4865 46.6554 46.1823C45.7298 46.878 45.0442 47.8451 44.6941 48.9489C43.6864 48.1659 42.5465 47.5699 41.3285 47.189C42.0058 46.6198 42.5522 45.9111 42.9305 45.1114C43.3088 44.3116 43.51 43.4397 43.5204 42.555ZM26.1427 55.3198C24.0493 55.3198 22.3463 53.4077 22.3463 51.0574C22.3463 48.7072 24.0493 46.7949 26.1427 46.7949C28.1021 46.7949 29.719 48.4705 29.918 50.6122C29.9322 50.7715 29.939 50.9136 29.939 51.0574C29.939 53.4077 28.2361 55.3198 26.1427 55.3198ZM49.8581 46.7949C51.9515 46.7949 53.6545 48.7072 53.6545 51.0574C53.6545 53.4077 51.9515 55.3198 49.8581 55.3198C47.7648 55.3198 46.0618 53.4077 46.0618 51.0574C46.0618 50.914 46.0686 50.7722 46.081 50.6323C46.2814 48.4708 47.8985 46.7949 49.8581 46.7949ZM49.8581 29.768C51.9515 29.768 53.6545 31.6802 53.6545 34.0305C53.6545 36.3808 51.9515 38.293 49.8581 38.293C47.7648 38.293 46.0618 36.3808 46.0618 34.0305C46.0618 33.8877 46.0686 33.7466 46.0809 33.6073C46.2812 31.444 47.8984 29.768 49.8581 29.768ZM38.0023 21.128C40.0957 21.128 41.7991 23.0403 41.7991 25.3906C41.7991 27.7409 40.0957 29.6531 38.0023 29.6531C35.9089 29.6531 34.206 27.7409 34.206 25.3906C34.206 23.0403 35.9089 21.128 38.0023 21.128ZM38.0004 31.3809C40.363 31.3688 42.6372 32.2788 44.3393 33.9173C44.3386 33.9554 44.334 33.9923 44.334 34.0305C44.3259 34.9388 44.5189 35.8377 44.899 36.6627C45.2791 37.4877 45.837 38.2184 46.5327 38.8025C45.342 39.1739 44.2255 39.7508 43.2337 40.5071C42.9117 39.3575 42.2301 38.3413 41.2887 37.6071C40.3473 36.873 39.1956 36.4595 38.0022 36.4272C36.8086 36.4596 35.6567 36.8733 34.7153 37.6078C33.7738 38.3423 33.0924 39.359 32.7707 40.5089C31.7782 39.7513 30.6606 39.1735 29.4686 38.802C30.1641 38.2179 30.7219 37.4873 31.1019 36.6624C31.4819 35.8374 31.6748 34.9387 31.6668 34.0305C31.6668 33.9926 31.6622 33.956 31.6615 33.9183C33.3643 32.2806 35.6379 31.3705 38.0004 31.3809ZM26.1427 29.768C28.1023 29.768 29.7193 31.4438 29.918 33.5858C29.9322 33.7461 29.939 33.8874 29.939 34.0305C29.939 36.3808 28.2361 38.293 26.1427 38.293C24.0493 38.293 22.3464 36.3808 22.3464 34.0305C22.3464 31.6802 24.0493 29.768 26.1427 29.768ZM38.0189 46.6789C35.8994 46.668 34.2059 44.7611 34.2059 42.4175C34.2059 40.0672 35.9089 38.155 38.0023 38.155C40.0956 38.155 41.7991 40.0672 41.7991 42.4175C41.7991 44.7616 40.1045 46.6687 38.0189 46.6789Z"
    fill="black">
  </path>
</svg>