<svg
  width="221"
  height="94"
  viewBox="0 0 221 94"
  fill="none"
  xmlns="http://www.w3.org/2000/svg">
  <path
    d="M25.604 66.363C21.4225 67.732 17.5984 69.5582 14.1317 71.8416C10.665 74.125 7.35228 76.6922 4.19365 79.5431C3.3741 80.2672 2.62151 80.509 1.93588 80.2685C1.29011 80.0128 0.883482 79.6657 0.716 79.2273C0.705715 78.3634 0.967937 77.5553 1.50267 76.8029C8.15089 69.6959 15.7583 65.0999 24.325 63.015C24.7693 62.9823 25.2023 63.1594 25.6242 63.5463C26.0706 63.8782 26.3149 64.2188 26.357 64.5681C26.4296 64.9971 26.4394 65.3816 26.3866 65.7215C26.3185 66.0215 26.0576 66.2354 25.604 66.363ZM25.0849 90.4715C25.2524 90.9099 25.2452 91.3694 25.0634 91.8499C24.9062 92.2754 24.6236 92.6117 24.2156 92.8589C23.4642 93.283 22.8927 93.3414 22.5013 93.0342C22.1099 92.7269 21.7953 92.3219 21.5575 91.819C20.4519 89.0442 19.3339 86.2969 18.2036 83.5772C17.098 80.8024 15.9126 78.058 14.6475 75.3441C14.5866 75.1847 14.4982 75.0129 14.3822 74.8289C14.251 74.605 14.1672 74.3857 14.131 74.1712C14.0795 73.9169 14.0831 73.6871 14.1417 73.482C14.2403 73.2617 14.4337 73.0508 14.7221 72.8492C15.578 72.3396 16.2965 72.2478 16.8778 72.5739C17.4439 72.86 17.8106 73.2223 17.9781 73.6608C19.3932 76.4087 20.6811 79.1824 21.8419 81.9818C23.0026 84.7813 24.0836 87.6111 25.0849 90.4715ZM33.6736 60.1974C34.039 61.154 34.4301 62.2378 34.847 63.4487C35.3038 64.6444 35.7758 65.88 36.263 67.1555C36.7901 68.4157 37.3125 69.7234 37.8302 71.0785C38.3877 72.4185 38.9224 73.6986 39.4342 74.919C39.5283 73.9695 39.7097 73.0096 39.9784 72.0392C40.2319 71.0289 40.5832 70.0953 41.0324 69.2387C41.5215 68.3667 42.0761 67.6068 42.6964 66.9588C43.3565 66.2955 44.1449 65.7888 45.0617 65.4386C46.0581 65.058 47.0568 65.0419 48.0577 65.3903C49.0984 65.7235 50.1034 66.3216 51.0725 67.1846C52.0662 67.9925 53.0136 68.978 53.9146 70.141C54.8004 71.2642 55.6217 72.4577 56.3785 73.7215C57.16 74.9302 57.8465 76.1296 58.438 77.3195C59.0144 78.4695 59.5099 79.4677 59.9246 80.3142C60.1682 80.9519 60.2067 81.5309 60.0401 82.0513C59.8735 82.5717 59.571 82.9156 59.1325 83.0831C58.8137 83.2049 58.339 83.1579 57.7084 82.942C57.1025 82.6711 56.5857 82.2747 56.158 81.753C55.8558 81.3204 55.4697 80.6685 55 79.7975C54.5302 78.9264 54.0177 78.0032 53.4624 77.0278C52.8919 76.0126 52.2815 75.0126 51.6312 74.0278C50.981 73.043 50.3167 72.2006 49.6382 71.5006C48.9844 70.7455 48.327 70.2202 47.666 69.9246C47.005 69.629 46.3785 69.6628 45.7864 70.026C44.8661 70.606 44.2557 71.6384 43.9552 73.1234C43.6945 74.5932 43.5744 76.192 43.595 77.9197C43.6554 79.6323 43.8032 81.3343 44.0383 83.0257C44.3132 84.702 44.5537 86.0489 44.7597 87.0663C44.8743 87.8447 44.8454 88.4266 44.673 88.8122C44.5252 89.1427 44.2919 89.3689 43.973 89.4907C43.6541 89.6125 43.2943 89.5672 42.8935 89.355C42.5325 89.1275 42.1488 88.8402 41.7421 88.4931C41.3601 88.0909 40.9981 87.6811 40.6559 87.2638C40.2986 86.8065 40.0314 86.4061 39.8546 86.0627C38.8331 83.9865 37.8895 81.9947 37.0239 80.0874C36.143 78.1402 35.2821 76.1854 34.4411 74.2229C33.64 72.2453 32.8435 70.2202 32.0518 68.1476C31.2448 66.0351 30.4245 63.7679 29.5906 61.346C28.8293 59.3532 29.2042 58.1823 30.7152 57.8335C31.2239 57.7305 31.7795 57.9293 32.3818 58.43C32.9689 58.8908 33.3995 59.48 33.6736 60.1974ZM70.7992 51.0166C71.3849 52.0717 71.9613 53.2218 72.5282 54.4668C73.1198 55.6567 73.6791 56.8817 74.2062 58.142C74.7731 59.3869 75.285 60.6073 75.7417 61.803C76.1985 62.9988 76.5897 64.0825 76.9152 65.0543C78.5256 65.444 79.5798 65.9319 80.0778 66.5181C80.6157 67.0891 80.8839 67.6718 80.8825 68.266C80.9175 69.0748 80.6237 69.621 80.0012 69.9044C79.4033 70.1328 78.6221 70.1801 77.6574 70.0461C77.2517 70.6579 76.7814 71.3399 76.2467 72.0923C75.6968 72.8048 75.107 73.5325 74.4773 74.2754C73.8324 74.9785 73.1723 75.6417 72.4969 76.2651C71.8216 76.8885 71.168 77.3894 70.5361 77.7678C69.3367 78.4543 68.0895 78.6567 66.7944 78.375C65.5391 78.0781 64.4733 77.3205 63.5969 76.1024C63.0076 75.277 62.59 74.3632 62.3441 73.361C62.0831 72.3188 62.0242 71.268 62.1675 70.2084C62.2956 69.109 62.6212 68.0483 63.1443 67.0263C63.7072 65.9892 64.4706 65.0581 65.4343 64.2332C65.6677 64.0071 66.0083 63.7628 66.4561 63.5004C66.9438 63.2227 67.4543 63.0049 67.9877 62.8468C68.5457 62.6336 69.1418 62.5201 69.7759 62.5062C70.41 62.4924 71.0576 62.6332 71.7186 62.9288C71.4598 62.2512 71.1582 61.5215 70.8138 60.7396C70.4941 59.9026 70.1544 59.0732 69.7948 58.2514C69.4352 57.4296 69.0785 56.6752 68.7247 55.9882C68.3956 55.2462 68.0922 54.6313 67.8145 54.1436C67.5064 53.5762 67.1303 53.3088 66.686 53.3415C66.2664 53.3191 65.8156 53.5141 65.3338 53.9266C64.499 54.6108 63.619 55.6549 62.6937 57.0589C61.7685 58.4628 60.9258 59.9037 60.1658 61.3816C59.9442 61.8773 59.5866 62.1966 59.093 62.3395C58.6394 62.4671 58.1922 62.4324 57.7516 62.2353C57.3109 62.0383 56.9945 61.7481 56.8024 61.3647C56.595 60.9415 56.5794 60.4222 56.7554 59.8069C57.1589 58.8306 57.6345 57.804 58.1822 56.727C58.73 55.6499 59.348 54.6374 60.0363 53.6893C60.7094 52.7014 61.4482 51.8255 62.2525 51.0615C63.0568 50.2975 63.9297 49.7129 64.871 49.3076C66.2508 48.7348 67.4488 48.6426 68.4649 49.0309C69.4658 49.3793 70.2439 50.0412 70.7992 51.0166ZM68.7743 66.5199C68.3018 66.8375 67.8427 67.3097 67.3971 67.9366C66.9762 68.5085 66.6331 69.1648 66.368 69.9055C66.1275 70.5912 66.0171 71.3184 66.0368 72.0874C66.0811 72.8012 66.3247 73.4389 66.7676 74.0005C66.9387 74.2092 67.1666 74.3277 67.4514 74.3559C67.7761 74.3689 68.0827 74.2746 68.3711 74.0731C69.2515 73.5084 70.183 72.7187 71.1656 71.7039C72.1728 70.634 72.9057 69.6233 73.3643 68.6717C73.2729 68.4325 73.0392 68.1793 72.663 67.9119C72.2716 67.6047 71.8479 67.3326 71.3921 67.0957C70.9209 66.8189 70.4328 66.6172 69.9276 66.4904C69.4624 66.3484 69.0779 66.3583 68.7743 66.5199ZM82.0782 49.4485C82.4261 50.0006 82.8045 50.6325 83.2134 51.3442C83.6469 52.0007 84.0956 52.6971 84.5596 53.4333C85.0083 54.1297 85.4447 54.8537 85.8688 55.6051C86.2928 56.3566 86.6818 57.0758 87.0356 57.7628C87.118 56.5438 87.2174 55.2498 87.3339 53.8808C87.4503 52.5117 87.6447 51.2271 87.917 50.0269C88.214 48.7717 88.5994 47.6881 89.0732 46.7764C89.5869 45.8493 90.2821 45.2184 91.159 44.8834C92.4743 44.3809 93.7531 44.4405 94.9954 45.0621C96.2775 45.6685 97.4916 46.575 98.6376 47.7815C99.8082 48.9329 100.87 50.2173 101.822 51.6347C102.775 53.0521 103.599 54.313 104.295 55.4174C104.945 56.4022 104.771 57.382 103.774 58.3569C103.322 58.8491 102.919 59.0488 102.564 58.9561C102.209 58.8634 101.973 58.725 101.857 58.541C101.475 58.1388 100.896 57.4008 100.121 56.3268C99.3849 55.2377 98.5817 54.1515 97.7111 53.0681C96.8804 51.9696 96.0508 51.0533 95.2223 50.3193C94.3938 49.5853 93.6959 49.3723 93.1285 49.6804C92.4263 49.9943 91.9941 50.776 91.832 52.0255C91.6734 53.0452 91.533 54.1722 91.4107 55.4064C91.3131 56.5855 91.2306 57.8045 91.1634 59.0634C91.081 60.2824 91.0062 61.5213 90.939 62.7802C90.8965 63.984 90.8434 65.1004 90.7798 66.1295C90.6073 66.5151 90.3247 66.8515 89.932 67.1385C89.5639 67.3705 89.1301 67.4905 88.6308 67.4985C88.1865 67.5312 87.7916 67.4537 87.4458 67.2661C87.1001 67.0784 86.874 66.8451 86.7674 66.5661C85.2211 63.5943 83.7614 60.909 82.3884 58.5104C81.0552 56.0965 79.5796 53.6686 77.9617 51.2265C77.3325 50.4164 76.9986 49.7218 76.9601 49.1427C76.9462 48.5086 77.4604 48.061 78.5025 47.7999C79.9888 47.5062 81.1807 48.0557 82.0782 49.4485ZM120.101 35.1293C120.245 35.0285 120.476 34.9173 120.795 34.7954C121.099 34.6338 121.406 34.5395 121.715 34.5127C122.049 34.4307 122.346 34.4314 122.606 34.5147C122.891 34.5429 123.092 34.649 123.208 34.8331C123.47 35.2809 123.558 35.7498 123.471 36.2398C123.409 36.6746 123.152 37.1381 122.7 37.6303C121.46 38.9263 120.198 40.3448 118.914 41.8858C117.614 43.3869 116.524 44.7169 115.642 45.8759C116.542 46.0801 117.565 46.3061 118.71 46.5538C119.895 46.7862 121.115 47.0509 122.37 47.3478C123.61 47.6049 124.873 47.9218 126.159 48.2984C127.43 48.6352 128.64 48.9949 129.791 49.3773C130.847 49.7504 131.223 50.3149 130.918 51.0708C130.785 51.4412 130.463 51.7927 129.95 52.1255C129.478 52.443 128.957 52.5735 128.387 52.5171C127.343 52.4136 126.188 52.2609 124.924 52.0589C123.644 51.817 122.344 51.5828 121.024 51.3561C119.689 51.0897 118.382 50.8355 117.102 50.5936C115.846 50.2967 114.694 50.0291 113.644 49.7908C114.336 51.1249 115.008 52.4667 115.661 53.816C116.353 55.1501 117.026 56.4918 117.678 57.8412C118.206 58.5071 118.422 59.1325 118.326 59.7174C118.23 60.3023 117.855 60.6966 117.202 60.9003C116.479 61.0396 115.882 60.9708 115.411 60.6941C114.924 60.3774 114.472 59.9108 114.054 59.2941C113.19 57.7513 112.173 55.9248 111.002 53.8146C109.87 51.6891 108.688 49.4916 107.455 47.2219C106.223 44.9523 105.013 42.7424 103.827 40.5924C102.68 38.4271 101.652 36.5132 100.743 34.8508C100.45 34.3233 100.162 33.7483 99.8783 33.1258C99.6195 32.4482 99.6712 31.926 100.034 31.5592C100.54 31.0917 101.211 30.9952 102.047 31.2698C102.867 31.5044 103.627 32.0591 104.327 32.9337C105.346 34.6454 106.426 36.5164 107.567 38.5469C108.708 40.5774 109.895 42.7275 111.127 44.9972C111.742 44.2144 112.461 43.346 113.284 42.3922C114.131 41.3832 114.974 40.4217 115.813 39.5077C116.676 38.5386 117.482 37.6597 118.231 36.8711C118.98 36.0825 119.604 35.5019 120.101 35.1293ZM163.512 19.3682C164.454 21.4749 165.403 23.6014 166.36 25.7479C167.357 27.8792 168.227 30.0362 168.969 32.2189C169.696 34.3618 170.269 36.5182 170.687 38.6879C171.144 40.8425 171.332 43.0087 171.251 45.1865C171.154 47.3244 170.733 49.4494 169.986 51.5614C169.28 53.6581 168.154 55.7325 166.609 57.7844C166.366 58.1055 166.053 58.3621 165.67 58.5542C165.326 58.7311 164.96 58.8482 164.571 58.9055C164.197 59.0027 163.84 59.0249 163.5 58.972C163.175 58.959 162.927 58.8482 162.756 58.6395C162.5 58.3265 162.407 57.905 162.479 57.3752C162.551 56.8455 162.774 56.2348 163.149 55.5434C164.401 53.5582 165.342 51.5998 165.975 49.6683C166.607 47.7368 166.955 45.7771 167.017 43.7892C167.08 41.8012 166.831 39.7727 166.269 37.7037C165.731 35.5797 164.886 33.3676 163.733 31.0675C163.484 31.848 163.162 32.679 162.767 33.5603C162.373 34.4416 161.917 35.2784 161.397 36.0706C160.862 36.823 160.285 37.5232 159.665 38.1712C159.029 38.7793 158.373 39.2128 157.695 39.4716C157.137 39.6848 156.533 39.7784 155.884 39.7524C155.235 39.7264 154.501 39.4812 153.685 39.0168C152.727 38.4234 151.791 37.7075 150.877 36.8691C149.988 35.9757 149.174 35.0993 148.434 34.2399C147.695 33.3805 147.053 32.5979 146.51 31.8921C146.006 31.171 145.673 30.6587 145.512 30.3551C145.28 29.987 145.135 29.6083 145.078 29.2191C145.02 28.83 145.196 28.5118 145.604 28.2646C146.156 27.9166 146.729 27.7433 147.323 27.7447C147.918 27.746 148.398 27.9279 148.765 28.2902C149.092 28.6677 149.57 29.2615 150.199 30.0717C150.828 30.8818 151.517 31.6691 152.266 32.4336C153 33.1582 153.715 33.7756 154.412 34.2857C155.149 34.7805 155.777 34.929 156.295 34.7311C156.893 34.5027 157.476 33.9373 158.045 33.0349C158.654 32.1173 159.154 31.0356 159.546 29.7897C159.938 28.5438 160.172 27.244 160.249 25.8902C160.35 24.4813 160.187 23.2189 159.761 22.1029C159.67 21.8637 159.603 21.5695 159.561 21.2202C159.519 20.8709 159.524 20.5263 159.577 20.1863C159.615 19.8066 159.695 19.479 159.818 19.2036C159.966 18.8731 160.152 18.6422 160.376 18.511C160.983 18.1877 161.609 18.1539 162.255 18.4096C162.926 18.6103 163.345 18.9298 163.512 19.3682ZM182.241 9.88443C183.604 9.86609 184.852 10.1431 185.984 10.7155C187.156 11.2726 188.174 12.0254 189.039 12.9739C189.888 13.8826 190.554 14.9073 191.035 16.0479C191.557 17.1733 191.848 18.2952 191.91 19.4134C191.898 20.6969 191.758 22.0061 191.492 23.3411C191.225 24.6761 190.814 25.9296 190.256 27.1016C189.699 28.2735 188.962 29.3318 188.044 30.2762C187.126 31.2207 185.989 31.9518 184.634 32.4694C183 33.0937 181.48 33.2403 180.075 32.9094C178.669 32.5784 177.419 31.9368 176.325 30.9847C175.23 30.0326 174.294 28.8373 173.516 27.3989C172.778 25.9452 172.24 24.4154 171.9 22.8094C171.633 21.6325 171.481 20.4574 171.444 19.2841C171.432 18.0557 171.572 16.9287 171.865 15.9031C172.144 14.8377 172.562 13.9013 173.122 13.0939C173.721 12.2712 174.519 11.6696 175.515 11.2889C176.073 11.0758 176.816 10.9289 177.745 10.8483C178.658 10.7279 179.549 10.7299 180.419 10.8544C180.754 10.1782 181.362 9.85486 182.241 9.88443ZM181.636 15.1167C181.091 15.0052 180.436 14.8444 179.671 14.6343C178.93 14.3692 178.34 14.3204 177.902 14.4879C177.424 14.6706 177.029 15.0725 176.718 15.6936C176.447 16.2996 176.247 16.97 176.116 17.7049C176.011 18.3847 175.952 19.0692 175.942 19.7584C175.931 20.4476 175.954 20.9868 176.011 21.376C176.12 22.0195 176.315 22.7674 176.594 23.6196C176.874 24.4719 177.254 25.286 177.733 26.0621C178.197 26.7984 178.778 27.4216 179.475 27.9317C180.197 28.3867 181.069 28.5786 182.093 28.5074C182.712 28.4537 183.369 28.2025 184.066 27.7537C184.747 27.2652 185.355 26.6447 185.889 25.8923C186.464 25.1248 186.918 24.2206 187.251 23.1798C187.624 22.1238 187.792 21.0092 187.755 19.8359C187.712 18.5277 187.255 17.332 186.385 16.2487C185.539 15.1103 184.431 14.4828 183.062 14.3664C182.859 14.6722 182.618 14.8785 182.339 14.985C182.06 15.0916 181.826 15.1355 181.636 15.1167ZM199.013 7.10832C199.185 8.27583 199.403 9.56291 199.666 10.9696C199.914 12.3364 200.207 13.6405 200.544 14.8819C200.921 16.108 201.332 17.1842 201.777 18.1103C202.262 19.0212 202.78 19.5998 203.331 19.8462C204.054 19.7069 204.725 19.131 205.343 18.1184C205.946 17.066 206.46 15.8419 206.886 14.446C207.312 13.0501 207.628 11.605 207.833 10.1105C208.024 8.57626 208.076 7.27754 207.989 6.21438C207.966 5.67518 207.915 5.12368 207.837 4.55985C207.759 3.99603 207.613 3.43511 207.4 2.87711C207.278 2.55824 207.363 2.18318 207.655 1.75192C207.972 1.26558 208.262 0.949193 208.526 0.802756C208.71 0.686769 208.944 0.642886 209.229 0.671104C209.554 0.684098 209.861 0.772103 210.152 0.935119C210.467 1.04305 210.765 1.226 211.047 1.48396C211.352 1.68683 211.566 1.9477 211.688 2.26656C212.225 3.43183 212.847 4.70146 213.554 6.07542C214.262 7.44939 214.989 8.81575 215.737 10.1745C216.524 11.518 217.296 12.8217 218.053 14.0855C218.81 15.3493 219.513 16.4736 220.163 17.4584C220.45 17.8511 220.521 18.395 220.376 19.0901C220.23 19.7851 219.961 20.2761 219.568 20.5632C219.24 20.7799 218.846 20.8847 218.386 20.8776C217.967 20.8552 217.566 20.6429 217.184 20.2407C216.772 19.7588 216.313 19.1574 215.81 18.4364C215.331 17.6603 214.844 16.8642 214.349 16.0483C213.88 15.1772 213.433 14.366 213.009 13.6145C212.569 12.8232 212.223 12.1561 211.97 11.6133C211.783 12.9179 211.485 14.288 211.074 15.7238C210.688 17.1044 210.192 18.4358 209.585 19.718C209.003 20.945 208.293 22.0156 207.455 22.9296C206.641 23.7885 205.674 24.3637 204.552 24.6552C202.881 25.065 201.095 24.0347 199.192 21.5644C198.447 20.5702 197.815 19.3955 197.298 18.0404C196.82 16.67 196.409 15.2967 196.066 13.9205C195.748 12.4892 195.48 11.13 195.262 9.84295C195.085 8.54065 194.951 7.47278 194.861 6.63936C194.819 6.29005 194.871 5.95015 195.019 5.61965C195.152 5.24929 195.393 5.04307 195.742 5.00098C196.386 4.89216 197.061 5.04534 197.767 5.46049C198.514 5.86042 198.929 6.4097 199.013 7.10832Z"
    fill="#11141B"
  />
</svg>