<svg
  xmlns="http://www.w3.org/2000/svg"
  width="78"
  height="80"
  viewBox="0 0 78 80"
  fill="none">
  <path
    d="M60.6981 56.069C51.661 68.2002 39.963 76.8794 28.0047 67.9711C16.0465 59.0628 8.3563 35.9402 17.3935 23.809C26.4306 11.6778 36.4725 12.7996 55.409 17.9735C74.3456 23.1475 69.7353 43.9378 60.6981 56.069Z"
    fill="#FFE9E9">
  </path>
  <g clipPath="url(#clip0)">
  <path
    d="M52.8569 47.7098C52.8242 47.6393 52.7937 47.5809 52.7654 47.534C52.2969 46.6903 51.4017 45.6548 50.0803 44.427L50.0524 44.3989L50.0384 44.3851L50.0243 44.371H50.0101C49.4104 43.7993 49.0306 43.4149 48.8716 43.2181C48.5806 42.8432 48.5154 42.4637 48.6745 42.0792C48.7868 41.7887 49.2089 41.1752 49.9397 40.2379C50.3241 39.7411 50.6285 39.343 50.8533 39.043C52.4748 36.8874 53.1778 35.5099 52.9621 34.91L52.8783 34.7698C52.8221 34.6854 52.6768 34.6082 52.4428 34.5378C52.2082 34.4676 51.9084 34.4559 51.5428 34.5028L47.4943 34.5307C47.4287 34.5075 47.335 34.5097 47.213 34.5378C47.0912 34.566 47.0302 34.5801 47.0302 34.5801L46.9597 34.6153L46.9038 34.6576C46.8569 34.6856 46.8054 34.7348 46.7491 34.8051C46.6931 34.8752 46.6463 34.9574 46.6089 35.0511C46.1681 36.1851 45.667 37.2394 45.1045 38.214C44.7577 38.7952 44.4393 39.2988 44.1484 39.7253C43.858 40.1516 43.6143 40.4657 43.4176 40.667C43.2207 40.8685 43.0429 41.03 42.8833 41.152C42.7239 41.274 42.6022 41.3255 42.518 41.3067C42.4335 41.2878 42.354 41.2691 42.2787 41.2504C42.1476 41.166 42.0422 41.0512 41.9626 40.906C41.8828 40.7607 41.829 40.5779 41.8009 40.3577C41.7729 40.1373 41.7564 39.9477 41.7517 39.7883C41.7473 39.6291 41.7493 39.404 41.7588 39.1135C41.7685 38.8228 41.7729 38.6262 41.7729 38.523C41.7729 38.1669 41.7799 37.7803 41.7938 37.3632C41.808 36.9462 41.8195 36.6158 41.8291 36.3723C41.8386 36.1287 41.843 35.8708 41.843 35.5991C41.843 35.3273 41.8265 35.1141 41.7938 34.9594C41.7615 34.8049 41.7119 34.6549 41.6466 34.5095C41.5808 34.3643 41.4846 34.2519 41.3584 34.1721C41.2319 34.0925 41.0746 34.0293 40.8875 33.9823C40.3907 33.8699 39.7582 33.8091 38.9895 33.7996C37.2464 33.7809 36.1264 33.8935 35.6297 34.1371C35.4329 34.2401 35.2548 34.3808 35.0956 34.5587C34.9268 34.765 34.9033 34.8775 35.0251 34.896C35.5875 34.9803 35.9856 35.1818 36.22 35.5004L36.3044 35.6693C36.3701 35.7911 36.4357 36.0067 36.5013 36.316C36.5668 36.6252 36.6091 36.9672 36.6278 37.3419C36.6745 38.0262 36.6745 38.6119 36.6278 39.0992C36.5808 39.5866 36.5365 39.9661 36.4942 40.2379C36.4519 40.5097 36.3887 40.7299 36.3044 40.8986C36.22 41.0673 36.1638 41.1704 36.1356 41.2078C36.1075 41.2452 36.0841 41.2688 36.0655 41.2781C35.9436 41.3247 35.817 41.3485 35.6858 41.3485C35.5545 41.3485 35.3953 41.2828 35.2079 41.1516C35.0205 41.0203 34.8261 40.84 34.6246 40.6103C34.423 40.3806 34.1957 40.0597 33.9426 39.6473C33.6897 39.235 33.4272 38.7477 33.1555 38.1854L32.9306 37.7776C32.79 37.5153 32.598 37.1333 32.3543 36.632C32.1105 36.1305 31.895 35.6454 31.7076 35.1768C31.6327 34.98 31.5202 34.8302 31.3703 34.7271L31.2999 34.6848C31.2531 34.6474 31.1781 34.6077 31.075 34.5653C30.9719 34.523 30.8643 34.4927 30.7517 34.474L26.8999 34.502C26.5063 34.502 26.2392 34.5912 26.0986 34.7692L26.0423 34.8535C26.0142 34.9004 26 34.9754 26 35.0785C26 35.1816 26.0281 35.3082 26.0844 35.458C26.6467 36.7795 27.2582 38.0541 27.9189 39.2818C28.5795 40.5095 29.1536 41.4984 29.6408 42.2477C30.1282 42.9975 30.6249 43.7052 31.131 44.3704C31.6371 45.0359 31.9721 45.4623 32.136 45.6497C32.3001 45.8374 32.429 45.9777 32.5227 46.0714L32.8743 46.4087C33.0992 46.6337 33.4295 46.9031 33.8653 47.217C34.3012 47.5311 34.7837 47.8403 35.3133 48.1452C35.8429 48.4495 36.459 48.6979 37.1619 48.8899C37.8648 49.0822 38.5489 49.1594 39.2144 49.1221H40.831C41.1589 49.0938 41.4073 48.9907 41.5762 48.8128L41.6321 48.7423C41.6697 48.6864 41.7049 48.5995 41.7374 48.4825C41.7703 48.3654 41.7867 48.2364 41.7867 48.096C41.7771 47.6931 41.8077 47.3299 41.8778 47.0066C41.9479 46.6834 42.0278 46.4398 42.1171 46.2757C42.2064 46.1117 42.3071 45.9733 42.4192 45.8612C42.5316 45.7488 42.6116 45.6807 42.6586 45.6572C42.7053 45.6336 42.7426 45.6176 42.7707 45.608C42.9956 45.5331 43.2603 45.6057 43.5652 45.8261C43.8698 46.0464 44.1555 46.3183 44.4228 46.6415C44.6899 46.965 45.0109 47.3279 45.3857 47.7308C45.7607 48.1339 46.0886 48.4335 46.3697 48.6306L46.6507 48.7993C46.8384 48.9119 47.0821 49.015 47.3821 49.1087C47.6815 49.2023 47.9438 49.2257 48.1691 49.1789L51.7677 49.1228C52.1237 49.1228 52.4006 49.0639 52.5971 48.9469C52.7939 48.8298 52.9109 48.7007 52.9486 48.5603C52.9862 48.4198 52.9882 48.2604 52.9557 48.0821C52.9224 47.9043 52.8896 47.78 52.8569 47.7098Z"
    fill="black">
  </path>
  </g>
  <defs>
    <clipPath id="clip0">
      <rect
          width="27"
          height="27"
          fill="white"
          transform="translate(26 28)">
        </rect>
    </clipPath>
  </defs>
</svg>