<svg width="7" height="10" viewBox="0 0 7 10" fill="none" xmlns="http://www.w3.org/2000/svg">
<path d="M0.982422 4.97656C0.982422 5.18652 1.06543 5.36719 1.22656 5.52832L4.97656 9.18555C5.10352 9.3125 5.25977 9.38086 5.44531 9.38086C5.82617 9.38086 6.12891 9.07813 6.12891 8.70215C6.12891 8.5166 6.05566 8.34082 5.91894 8.2041L2.59863 4.98145L5.91894 1.75391C6.05078 1.61719 6.12891 1.44629 6.12891 1.25586C6.12891 0.879883 5.82617 0.577148 5.44531 0.577148C5.25977 0.577148 5.10352 0.645508 4.97168 0.772461L1.22656 4.42969C1.06055 4.60059 0.982422 4.77148 0.982422 4.97656Z" fill="#69788C"/>
</svg>
