<svg width="7" height="10" viewBox="0 0 7 10" fill="none" xmlns="http://www.w3.org/2000/svg">
<path d="M6.12891 4.98145C6.12891 4.77148 6.0459 4.59082 5.88476 4.42969L2.13477 0.772461C2.00781 0.645508 1.85156 0.577148 1.66602 0.577148C1.28516 0.577148 0.982422 0.879883 0.982422 1.25586C0.982422 1.44141 1.05566 1.61719 1.19238 1.75391L4.51269 4.97656L1.19238 8.2041C1.06055 8.34082 0.982422 8.51172 0.982422 8.70215C0.982422 9.07813 1.28516 9.38086 1.66602 9.38086C1.85156 9.38086 2.00781 9.3125 2.13965 9.18555L5.88476 5.52832C6.05078 5.35742 6.12891 5.18652 6.12891 4.98145Z" fill="#69788C"/>
</svg>
