<svg width="44" height="44" viewBox="0 0 44 44" fill="none" xmlns="http://www.w3.org/2000/svg">
    <circle cx="22" cy="22" r="18" fill="white" stroke="white" stroke-width="8"/>
    <circle cx="22" cy="22" r="15.5" fill="white" stroke="#1E62E5" stroke-width="3"/>
    <path fill-rule="evenodd" clip-rule="evenodd" d="M26.9848 16.1245L27.4939 16.6336L22.3231 21.81L27.4937 26.9863L27.4941 26.9859L22.3236 21.8097L27.4944 16.6333L26.9849 16.1244L26.9848 16.1245ZM27.1388 27.3415L26.9851 27.4952L26.9852 27.4953L27.1388 27.3415ZM21.8083 22.3249L21.8082 22.3249L16.6325 27.495L16.6326 27.495L21.8083 22.3249ZM16.6319 16.1245L21.8082 21.2952L21.8087 21.2948L16.6323 16.1241L16.6319 16.1245ZM17.339 15.4654L21.8087 19.9302L26.2785 15.4654C26.669 15.0752 27.3019 15.0754 27.6923 15.4657L28.1527 15.9262C28.5431 16.3165 28.5433 16.9494 28.1531 17.34L23.6883 21.8097L28.1531 26.2794C28.5433 26.67 28.5431 27.3029 28.1527 27.6933L27.6923 28.1537C27.3019 28.5441 26.669 28.5442 26.2785 28.1541L21.8087 23.6892L17.339 28.1541C16.9484 28.5442 16.3156 28.5441 15.9252 28.1537L15.4648 27.6933C15.0744 27.3029 15.0742 26.67 15.4644 26.2794L19.9292 21.8097L15.4644 17.34C15.0742 16.9494 15.0744 16.3165 15.4648 15.9262L15.9252 15.4657C16.3156 15.0754 16.9484 15.0752 17.339 15.4654Z" fill="#1E62E5"/>
</svg>
