<svg width="88" height="88" viewBox="0 0 88 88" fill="none" xmlns="http://www.w3.org/2000/svg">
<path fill-rule="evenodd" clip-rule="evenodd" d="M0.451172 43.9996C0.451172 19.9867 19.9867 0.451172 43.9996 0.451172C68.0125 0.451172 87.5479 19.9867 87.5479 43.9996C87.5479 68.0125 68.0125 87.5479 43.9996 87.5479C19.9867 87.5479 0.451172 68.0125 0.451172 43.9996ZM6.90278 43.9996C6.90278 64.4544 23.5447 81.0963 43.9996 81.0963C64.4544 81.0963 81.0963 64.4544 81.0963 43.9996C81.0963 23.5447 64.4544 6.90278 43.9996 6.90278C23.5447 6.90278 6.90278 23.5447 6.90278 43.9996ZM43.9996 54.9625C46.227 54.9625 48.0318 53.1576 48.0318 50.9302V27.8705C48.0318 25.6431 46.227 23.8383 43.9996 23.8383C41.7721 23.8383 39.9673 25.6431 39.9673 27.8705V50.9302C39.9673 53.1576 41.7721 54.9625 43.9996 54.9625ZM43.9996 66.5801C46.3646 66.5801 48.2818 64.6629 48.2818 62.2979C48.2818 59.9328 46.3646 58.0156 43.9996 58.0156C41.6345 58.0156 39.7173 59.9328 39.7173 62.2979C39.7173 64.6629 41.6345 66.5801 43.9996 66.5801Z" fill="#1E62E5"/>
</svg>
